<?xml version="1.0" standalone="no"?>
<!DOCTYPE svg PUBLIC "-//W3C//DTD SVG 1.1//EN" "http://www.w3.org/Graphics/SVG/1.1/DTD/svg11.dtd" >
<svg xmlns="http://www.w3.org/2000/svg">
<metadata></metadata>
<defs>
<font id="dinosaurregular" horiz-adv-x="387" >
<font-face units-per-em="2048" ascent="1638" descent="-410" />
<missing-glyph horiz-adv-x="407" />
<glyph horiz-adv-x="0" />
<glyph unicode="&#xd;" horiz-adv-x="407" />
<glyph horiz-adv-x="0" />
<glyph horiz-adv-x="0" />
<glyph unicode=" "  horiz-adv-x="407" />
<glyph unicode="&#x09;" horiz-adv-x="407" />
<glyph unicode="&#xa0;" horiz-adv-x="407" />
<glyph unicode="!" horiz-adv-x="157" d="M23 600q0 41 1 77t1 62v166q0 23 10 44.5t37 21.5q23 0 38 -18.5t15 -41.5q0 -117 5 -231.5t5 -233.5v-45q0 -20 -1 -41.5t-6 -39t-14.5 -28.5t-25.5 -11q-23 0 -35 29.5t-19 75.5t-9 102.5t-2 111.5zM27 -2q0 33 17 53.5t42 26.5h8q20 -6 28.5 -24.5t8.5 -37.5l-4 15 q4 -16 4 -27q0 -23 -13.5 -47.5t-39.5 -24.5q-25 0 -38 21.5t-13 44.5z" />
<glyph unicode="&#x22;" horiz-adv-x="260" d="M27 893q0 16 12 27.5t29 11.5q16 0 39.5 -17.5t23.5 -44.5q0 -12 -4 -16q0 -4 1 -8t1 -15v-32q0 -16 -2 -39t-7 -42.5t-15.5 -32.5t-26.5 -13q-23 0 -31 25.5t-8 90.5v46q0 14 -2 22l-6 14q-4 12 -4 23zM154 780q0 20 1 39t1 33q0 16 8 34.5t31 18.5q31 0 38 -26.5 t7 -61.5v-33q0 -41 -7.5 -76.5t-33.5 -35.5q-29 0 -37 33.5t-8 74.5z" />
<glyph unicode="#" horiz-adv-x="991" d="M10 539v8q6 41 47 47q-4 -2 -10 -2q16 4 25 4l299 -31l63 226q2 14 3 20t2 15.5t5.5 27.5t12.5 55q-4 12 -4 25v-2q0 -2 2 -4q-4 6 -4 14v19q0 18 10 36.5t33 18.5q18 0 29.5 -12.5t17.5 -31t7 -39t1 -36.5v-16.5t-2 -16.5l-8 -33q0 -59 -25 -132.5t-43 -137.5 q0 -4 -2 -6q39 -4 76 -8t73 -8l80 -13q18 59 47 120t58 114l14 26q-8 16 -8 25q0 2 3 11t11 18.5t18.5 17.5t26.5 8q23 0 35 -25.5t12 -45.5t-9 -42t-15 -34l-21 -39q-23 -41 -45 -92t-26 -84q51 -12 100 -35l8 -4q37 -10 62 -47q8 -16 8 -31q0 -18 -12.5 -36.5t-30.5 -18.5 q-12 0 -23.5 7t-19.5 15l-17 6q-20 4 -40 13q-16 4 -37 10t-39 10l-19 -55q18 0 38 3t36 3v-2q0 -2 -2 -2h-4q2 0 4 1t4 1q25 0 44.5 -21.5t19.5 -41.5q0 -23 -15.5 -34.5t-37 -16.5t-46 -7t-41.5 -4h-24q-4 0 -6 -1t-7 -1l-8 -31q-6 -23 -14 -47t-12 -47l-19 -74 q-12 -27 -20 -67.5t-17.5 -80.5t-23 -68.5t-39.5 -28.5q-25 0 -37 19.5t-12 41.5v10q16 72 34.5 141.5t36.5 139.5l25 92h-43h-39.5t-42.5 2l-88 6l-6 -30q-18 -72 -32.5 -145t-25.5 -144l-18 -97q-4 -16 -13 -28t-26 -12q-18 0 -31.5 15t-13.5 34q0 104 20.5 204.5 t43.5 204.5h-29q-14 0 -31.5 1t-33 7.5t-26.5 18.5t-14 35q0 23 12.5 36t32 19t43 8t46.5 2h32l23 88l-244 27q-16 0 -24 2l-31 14q-16 6 -21.5 22.5t-5.5 33.5zM416 348l63 -12h156l22 74l-57 6q-37 4 -75 9t-72 7q-8 0 -17 -6l-10 -33q0 -4 -1 -6t-1 -6z" />
<glyph unicode="$" horiz-adv-x="530" d="M23 532q0 53 31.5 92.5t78.5 57.5q14 6 42 11t32 9l18 154q0 10 1 21.5t7 21.5q2 16 6.5 41t13.5 47.5t25.5 38.5t40.5 16q18 0 32 -13t23 -31.5t14 -39t5 -34.5q0 -12 -1 -24.5t-1 -22.5v-21q-4 -27 -4 -52.5t-4 -51.5l-10 -64q80 -18 86 -88q0 -18 -8.5 -36.5 t-30.5 -20.5q-16 0 -28.5 14t-16.5 14l-25 7l-6 -21q-23 -74 -49 -139l-4 -70l51 -31q27 -16 55.5 -39.5t53 -53t40 -63.5t15.5 -71q0 -43 -21.5 -73.5t-54.5 -50t-68.5 -30t-62.5 -12.5q2 -23 2 -47v-47q0 -18 -10 -39.5t-33 -21.5t-34 16t-15 37l-4 24q0 8 -4 21l-6 41 q0 6 -5 18q-57 14 -100 50t-43 112q0 61 29.5 121.5t58.5 116.5q-43 37 -77.5 92t-34.5 114zM123 530l6 -20q0 -8 2 -8l14 -25q4 -14 39 -45q4 4 6.5 23.5t2.5 36.5v12v28.5t2 28.5v17l-48 -21l-18 -14q0 -4 -2 -6t-2 -5q0 -2 -2 -2zM145 84q0 -4 2 -8l7 -6q0 -2 5 -5.5 t9 -3.5l16 -8v133q-29 -55 -34 -76.5t-5 -25.5zM291 129q0 -41 2 -82q31 0 58.5 18.5t54.5 30.5q-4 16 -11.5 22.5t-7.5 12.5l-14 16q-8 6 -14.5 13.5t-12.5 13.5l-18 16q-4 0 -6 3l-31 18v-82z" />
<glyph unicode="%" horiz-adv-x="362" d="M8 438q0 16 10.5 27.5t26.5 15.5l14 4q27 0 41 -16l9 -12q4 -10 6 -14.5t2 -14.5v-22q-2 -8 -11 -25l-8 -10q-14 -9 -26 -9q-23 0 -43.5 27t-20.5 49zM68 -72l6 47q4 25 9 49.5t9 49.5l23 121q12 66 26.5 131t36.5 131l21 63q0 23 8 47.5t8 48.5v31q0 4 -2 6.5t-2 20.5 q-4 12 -4 22q0 16 10 35t33 19q20 0 31.5 -14.5t17.5 -34t8 -43t2 -42.5q0 -63 -9 -105t-23.5 -92t-34 -124t-39.5 -203l-19 -96q0 -18 -5 -43t-15 -46.5t-23.5 -35.5t-27.5 -14q-29 0 -37 25.5t-8 45.5zM252 156q0 23 10 41t33 18t37 -22.5t18 -45.5v9q4 -12 4 -23 q0 -23 -11 -42t-38 -19q-18 0 -32.5 18.5t-14.5 36.5q-2 10 -4 16.5t-2 12.5z" />
<glyph unicode="&#x26;" horiz-adv-x="563" d="M16 80q0 53 23.5 101t54.5 89l8 11q-10 31 -12 62.5t-2 59.5q0 59 15.5 118t43.5 106l35 39q23 27 51.5 52t63.5 25q41 0 62.5 -30.5t21.5 -71.5q0 -74 -33 -149l-18 -43q-20 -45 -44 -88.5t-50 -84.5l-17 -24q14 -31 37 -57l37 -45l10 6q20 12 49 39.5t56.5 55.5t51 48 t36.5 20q25 0 38 -19t13 -44q0 -16 -16.5 -42t-40 -52.5t-50 -52t-47.5 -39.5q-6 -6 -6 -11l23 -18q39 -35 48 -39t9 -6l12 -14q8 -16 8 -33q0 -18 -12 -34.5t-31 -16.5q-12 0 -31.5 12t-42 30.5t-44 37t-33.5 30.5q-39 -16 -88 -26q4 0 7 1t7 1q-20 -6 -40.5 -10.5 t-43.5 -4.5q-47 0 -83 31t-36 80zM129 100h16.5t14.5 2q4 0 10 2t10 5q6 2 13 6q-8 8 -21.5 25.5t-17.5 17.5l-11 -17q-4 -4 -4 -8t-4 -4zM184 403l37 64q14 23 25.5 52.5t21.5 58.5l4 22q-18 -25 -31.5 -43t-22.5 -37.5t-17.5 -41t-14.5 -52.5q0 -6 -1 -11t-1 -12z" />
<glyph unicode="'" horiz-adv-x="135" d="M18 729q0 14 2 21l5 12v4q0 2 2 4l10 59q0 16 9 33t28 19q16 0 29.5 -13.5t13.5 -31.5t-3 -45t-10.5 -52.5t-18.5 -43t-28 -17.5q-20 0 -29.5 17.5t-9.5 33.5z" />
<glyph unicode="(" horiz-adv-x="305" d="M16 338q0 35 4.5 63.5t10.5 61.5q4 31 15 71.5t25.5 78.5t29 63.5t24.5 25.5l6 9q10 12 22.5 22t30.5 10q4 0 6.5 -1t6.5 -1l14 -6l14 -16q10 -16 11 -41q-4 -16 -13.5 -28.5t-25.5 -14.5l-21 -37l-35 -86q0 -23 -7 -48.5t-11 -49.5l-6 -49v-33q0 -16 2 -33.5t4 -34.5 l4 -12q4 -27 17.5 -57.5t13.5 -51.5v2q0 2 -1 2t-1 3l22 -35q4 -2 5 -4t5 -7q8 -16 23.5 -25t31 -18.5t28 -21.5t12.5 -35q0 -20 -12.5 -38.5t-30.5 -18.5q-8 0 -11 2q-55 18 -95 56t-66.5 90t-39 113.5t-12.5 129.5z" />
<glyph unicode=")" horiz-adv-x="303" d="M14 743q0 20 22.5 37t45.5 17q14 0 26.5 -6.5t22.5 -16.5l27 -26q12 -16 25.5 -35t25.5 -38.5t20.5 -38t8.5 -32.5l10 -22q18 -63 28.5 -128t10.5 -130q0 -31 -1 -62t-7 -61q-2 -8 -14.5 -51.5t-32 -92.5t-47 -88t-58.5 -39q-18 0 -31.5 17.5t-13.5 40.5q0 27 16.5 49 t28.5 47l8 16q2 2 8.5 18.5t12.5 34t12 33.5l6 15l4 12q0 12 3 44t7 46v25q0 35 -8 78t-8 75l-16 66q-4 8 -6.5 15t-6.5 16l-34 67q-10 10 -15 19l-6 10l-14 12q-23 2 -41.5 18.5t-18.5 38.5z" />
<glyph unicode="*" horiz-adv-x="475" d="M18 711q0 27 19 43l82 73l-64 70q-27 20 -26 51q0 20 11 36.5t34 16.5q8 0 20 -9t25.5 -21.5t26 -25.5t22.5 -21q-2 23 -4 45t-6 45l-6 14q-4 12 -5 21q0 18 12.5 28t28.5 10q31 0 45.5 -24.5t14.5 -46.5l10 -90q29 20 60.5 45t66.5 37q4 2 14 2q20 0 31.5 -17.5 t11.5 -38.5q0 -35 -28 -47l-33 -20q-10 -10 -14.5 -15.5t-14.5 -9.5l-47 -31l70 -51q16 -16 26.5 -34.5t10.5 -36.5q0 -20 -12.5 -36t-28.5 -16q-8 0 -21.5 6.5t-17.5 14.5l-13 10q-10 8 -21 15.5t-22 15.5l-8 4l4 -88q0 -16 -8 -35.5t-28 -19.5t-31.5 14t-17 36.5 t-7.5 48.5t-2 48v10l-53 -45q-14 -10 -32.5 -23.5t-29.5 -13.5q-23 0 -34 18.5t-11 37.5z" />
<glyph unicode="," horiz-adv-x="186" d="M16 -53q1 12 7 22q10 25 20 49.5t20 49.5q-2 4 -2 14q0 16 11.5 30.5t33.5 14.5q23 0 45.5 -18.5t22.5 -47.5l-10 -27q-10 -28 -25.5 -60.5t-34 -60.5t-36.5 -28q-23 0 -37.5 19.5t-14.5 42.5z" />
<glyph unicode="-" d="M23 354q0 25 15 39.5t38.5 21.5t50.5 8t51 1h86l39 -4q8 0 12 -2q23 0 33 -23.5t10 -40.5q0 -23 -12 -41t-35 -18q-6 0 -10 2h-8h-4h2q-10 0 -21.5 1t-21.5 1q-25 0 -50.5 -2t-54.5 -2q-18 0 -37.5 1t-38 6t-30.5 17.5t-14 34.5z" />
<glyph unicode="." horiz-adv-x="141" d="M23 49q0 16 12 27.5t28 11.5q23 0 39.5 -19.5t16.5 -39.5q0 -16 -12.5 -26.5t-28.5 -10.5q-23 0 -39 18.5t-16 38.5z" />
<glyph unicode="/" horiz-adv-x="415" d="M8 -117q0 4 1 5t1 6l8 34q0 10 7 27l12 59q14 49 28.5 97.5t30.5 97.5l62 180q16 49 41.5 117.5t54.5 131t59.5 108t55.5 45.5q23 0 33 -18.5t10 -35.5q0 -20 -12.5 -41.5t-12.5 -19.5l10 6l-10 -8q-4 -10 -11 -18.5t-11 -18.5l-11 -21q-4 -4 -4 -8l-18 -35 q-29 -61 -60.5 -156t-59.5 -185.5t-48.5 -155t-26.5 -64.5q-2 -23 -10 -56.5t-21 -57.5l-24 -50q-10 -16 -31 -16q-16 0 -29.5 16.5t-13.5 34.5z" />
<glyph unicode="0" horiz-adv-x="538" d="M23 315q0 66 21.5 132.5t61 118.5t98 85t132.5 33h16t17 -2l26 -6q8 4 13 4q4 0 14 -6t22.5 -14.5t23.5 -17.5t15 -17q8 -23 14.5 -30t6.5 -26q0 -20 -10 -30q12 -33 17 -67t5 -64q0 -68 -17.5 -140.5t-52 -133t-89 -99.5t-130.5 -39q-53 0 -91 31.5t-63.5 80 t-37.5 103.5t-12 104zM121 317q4 -16 3 -38.5t3 -22.5l-2 10q2 -16 8 -32.5t13.5 -32t12.5 -26.5t5 -13l22 -25l17 -10q2 -2 10 -2q2 0 4 -2h8h24.5t24.5 4q-2 0 -4 -1t-4 -1q14 4 25.5 8t22 13.5t21.5 24.5t27 42l33 82v2q0 2 2 4q0 2 2 6q4 33 7.5 51.5t4.5 27.5t2 11l1 2 q0 14 -3 34t-3 28l-21 76l-8 32q-12 4 -21 4h2h-20t-21 -2l-22 -4q-6 0 -20.5 -6t-24.5 -10l-14 -8q-4 0 -18.5 -12.5t-22.5 -20.5l-13 -12q0 -4 -8 -14.5t-12 -14.5l-31 -66q0 -2 -1 -4t-1 -4v-6v2q0 4 2 8l-6 -30q-2 -10 -4 -24.5t-2 -27.5z" />
<glyph unicode="1" horiz-adv-x="196" d="M18 657q0 14 1 49t7.5 71t20.5 62.5t41 26.5q23 0 36 -17.5t13 -37.5q0 -4 -1 -7t-1 -7v-11q0 -4 -2 -12t-6 -10l-6 -68q0 -2 -1 -3t-1 -3v-39q0 -145 24.5 -280t36.5 -275q0 -18 -10 -39.5t-33 -21.5q-29 0 -41 24.5t-12 46.5l-6 35q-4 4 -5 14.5t-1 20.5 q-27 109 -40.5 235t-13.5 246zM74 154l2 -2z" />
<glyph unicode="2" horiz-adv-x="540" d="M-45 678q0 57 44 106.5t103 77.5l7 4q-8 -4 -9 -4q2 0 6 4q37 12 67 33t73 21q45 0 76.5 -15.5t52 -42t30 -59.5t9.5 -70q0 -121 -31 -222t-72 -206l-18 -45q-6 -14 -14.5 -25.5t-16.5 -23.5l-41 -74q10 0 20.5 1t20.5 3l47 9q41 16 89 31.5t91 15.5q23 0 35.5 -19.5 t14.5 -38.5q0 -16 -7.5 -35.5t-23.5 -25.5q-25 -6 -52.5 -16.5t-54 -21.5t-52 -18.5t-44.5 -7.5l-45 -6q-10 -2 -21.5 -2h-21.5q-20 0 -41.5 5t-39 15.5t-29 27t-11.5 38.5q0 47 29 103.5t65 109.5l9 12q0 6 4 7l57 143q8 20 20.5 50t12.5 46l14 68l4 47q0 4 1 6t1 6 q0 23 -1 47.5t-7 38.5l-10 10l-16 5q-12 6 -29 6q-4 0 -9 -1t-8 -1l3 2q-4 -2 -9 -2l-57 -27q-8 -6 -16.5 -11t-18.5 -12l-18 -10q-33 -20 -56 -45q-12 -16 -14 -19t-4 -3q-14 -41 -43 -41q-23 0 -34 17.5t-11 33.5z" />
<glyph unicode="3" horiz-adv-x="620" d="M16 735q0 31 32 56.5t77 45t95 31t85 11.5q78 0 125 -45.5t47 -116.5q0 -39 -18.5 -70t-18.5 -41l-12 -24q-4 -8 -10 -14.5t-10 -12.5q33 -18 65.5 -35.5t59 -41t44 -56.5t21.5 -80q0 2 -1 3t-1 3q4 -16 5 -26.5t1 -22.5q0 -53 -22.5 -108.5t-62.5 -100.5t-94 -73.5 t-118 -28.5q-16 0 -41.5 5t-49.5 15t-40 28.5t-16 43.5q0 16 11 36.5t32 20.5q8 0 21.5 -3t26.5 -6t23.5 -6t14.5 -3q29 0 59 6q-4 0 -7 -1t-7 -1q35 8 58.5 22.5t47.5 38.5l13 13q4 6 8 11t8 11l10 14q0 2 3 8.5t3 4.5l13 33q0 4 1 8t1 8q0 20 -5.5 31.5t-5.5 23.5l-22 35 l-43 31q-27 10 -59.5 14t-62.5 11.5t-50.5 22.5t-24.5 50q0 45 30 68.5t58 48.5l15 12q0 6 8 10t8 15l4 8q2 6 12.5 27.5t12.5 21.5q-4 4 -4 6l-17 10q-10 4 -30 9q-111 0 -203 -54l-10 -4q-10 -8 -18.5 -13t-24.5 -5q-20 0 -35 17.5t-15 43.5z" />
<glyph unicode="4" horiz-adv-x="651" d="M16 680q0 29 2 60.5t9.5 59t19.5 45t33 17.5q29 0 39 -22.5t10 -42.5q0 -12 -2 -22.5t-8 -14.5v-17q0 -4 -1 -10t-1 -10q0 -10 1 -20.5t1 -20.5l4 -123l6 -65q0 -6 1 -13.5t3 -7.5l6 -31q4 -20 7.5 -24t0.5 -6q12 -27 17.5 -34t6.5 -7t0 3t1 -3h-2l10 -6q12 -14 37 -17.5 t45 -7.5h28.5t31.5 2l38 6q0 10 -1 21.5t-1 21.5v21q0 57 4.5 118.5t12.5 118.5q0 18 9 42t36 24q23 0 39 -18.5t16 -41.5v-46t-2 -48l-6 -80v-110q29 8 63.5 17t63.5 9q27 0 38 -23.5t11 -41.5q0 -16 -7 -33.5t-24 -22.5l-131 -36l6 -50q4 -37 10.5 -74.5t8.5 -76.5 q0 -20 -10.5 -42t-34.5 -22q-23 0 -39 26t-26.5 62.5t-15.5 77.5t-5 70q-18 0 -35.5 -4t-34.5 -4q-113 0 -172 44t-84.5 113.5t-29 154.5t-3.5 165z" />
<glyph unicode="5" horiz-adv-x="641" d="M20 479q0 37 12.5 79t24.5 67l25 47q49 74 115 131l47 41q2 0 3 2t5 4q2 2 6 4l-12 -6q12 14 30 14t35 -9t27 -24q18 -39 31.5 -44t52.5 -5q8 0 14 1t15 3l45 9q63 0 86 -7t39 -34q12 -16 12 -37q-4 -23 -19.5 -30t-31.5 -11q-12 0 -17.5 2t-9.5 0h2q-23 0 -40 -2t-40 -8 q2 2 4 2t6 2q-12 -4 -25 -8.5t-28 -4.5q-16 2 -30.5 2t-30.5 5l-54 6l-47 14q-12 4 -16 8l-41 -41q-4 -4 -19.5 -22.5t-23.5 -32.5l-25 -41v-8q-2 -2 -2 -6l-12 -37q-2 -4 -2 -8v4l2 2q-4 -4 -4 -13.5v-15.5q0 -2 1 -2t1 -2t2 -4l-2 4q16 -12 34.5 -20.5t37.5 -18.5 q51 -18 98 -38.5t84 -51.5t58.5 -73t21.5 -101q0 -49 -22.5 -89t-55.5 -70t-69.5 -45t-65.5 -15q-27 0 -56.5 7t-54 21.5t-42 37t-21.5 50.5q0 29 13 50.5t42 21.5q12 0 20.5 -6t14.5 -14.5t13 -16.5t22 -10q-4 0 -6 2q12 -6 18 -6h14h22.5t22.5 4l17 6q-2 0 -6 -4 q16 10 26.5 17.5t18.5 15.5l8 10q6 12 10 16.5t6 7.5t2 8v17q0 4 -3 10.5t-3 10.5l-6 10q0 4 -4 5t-4 5l-14 15l10 -7q-10 8 -23.5 15.5t-25.5 15.5q-35 14 -81 28.5t-86 38t-68 59.5t-28 91z" />
<glyph unicode="6" horiz-adv-x="423" d="M23 350q4 98 7 191.5t27 191.5l13 47q6 25 15 59.5t34 57.5q4 8 11 10t11 2q25 0 45.5 -17.5t20.5 -39.5q0 -23 -17.5 -32t-23.5 -34l-8 -32q-16 -66 -26.5 -133.5t-12.5 -135.5v-32v-90.5t6 -90.5l6 -36l33 24q25 18 55.5 30.5t61.5 14.5q63 0 99 -50t36 -114 q0 -35 -13.5 -72.5t-38 -70.5t-57.5 -53.5t-71 -20.5q-63 0 -103.5 44t-65 108.5t-33.5 139.5t-11 134zM168 115l6 -15v-4q0 -2 2 -4q-2 0 -2 2v4q14 -33 18.5 -36t4.5 -7q2 0 11 -4t19 -4q12 0 21 2q-4 0 -8 -1t-7 -1q8 0 17 2q16 4 16 10l-2 -2q6 4 12.5 9.5t12.5 13.5 l6 6q2 6 6 11t6 12l6 16q0 4 2 7t2 9l-2 19v-4v6l-4 8q-10 4 -14 8t-10 2h4h-10q-25 -8 -54 -22l2 2q-16 -10 -30.5 -22.5t-30.5 -22.5z" />
<glyph unicode="7" horiz-adv-x="712" d="M10 680q0 23 9.5 36t24.5 19t32.5 7t36.5 1l75 7q33 4 64 10t63 12l97 19h22q59 -4 104.5 -35t45.5 -109q0 -33 -13.5 -64.5t-13.5 -64.5q0 -16 -4 -31.5t-6 -31.5l-6 -19l63 25q2 0 3 1t3 1q6 4 23 4q23 0 44 -19.5t21 -44.5q0 -10 -5 -22t-15 -16l-31 -15 q-8 -4 -30.5 -11t-47 -16.5t-43 -21.5t-18.5 -27l-21 -151q0 -14 -2 -23v-10v-18.5t-4 -18.5q2 -8 4 -23.5t2 -25.5q0 -18 -10 -36.5t-33 -18.5q-18 0 -31.5 12t-23.5 30.5t-15 39t-5 37.5q0 47 7 96t15 94l-104 -31q-6 -2 -17 -2q-23 0 -36 20.5t-13 41.5q0 25 20.5 43 t50.5 30.5t63.5 21.5t60.5 17l8 29q6 20 10 38.5t8 39.5l9 37q2 12 4 24.5t6 24.5l6 24q4 8 5 16.5t3 18.5l-14 4q-4 0 -7 1t-8 1q-16 0 -24 -2l-148 -26q-29 -4 -54 -7.5t-54 -3.5h-57q-35 0 -67 9.5t-32 52.5zM477 645v4v-4z" />
<glyph unicode="8" horiz-adv-x="524" d="M37 102q0 53 31 101l92 108q-41 59 -80 128t-39 145q0 49 18.5 80.5t47 50t64.5 27t73 12.5q20 0 40.5 5t37.5 5q10 0 22 -6h8q14 14 41 14q53 -23 85 -56.5t32 -82.5q0 -33 -10 -70l-8 -18q-8 -12 -11 -21q-31 -70 -73.5 -124t-92.5 -107l-10 -10q16 -35 27.5 -68 t11.5 -74q0 -39 -14.5 -68.5t-39 -49t-55 -29.5t-63.5 -10q-53 0 -94 32.5t-41 85.5zM137 98v2v-2zM141 113q6 -4 16.5 -4h18.5q20 0 41 8l16 8v2q2 0 6.5 4t4.5 8v13q0 8 -2 16q-2 6 -4 13t-7 14l-8 12l-41 -41q-6 -6 -6 -8zM145 573q0 -6 3.5 -19t7.5 -17q4 -12 4 -15.5 t2 -3.5l22 -45q10 -23 26.5 -47.5t31.5 -40.5l63 68q25 27 45.5 55.5t38.5 73.5l19 45q-4 10 -11.5 15t-11.5 11q-6 -10 -29.5 -15t-51.5 -8t-54.5 -5t-38.5 -4q-10 0 -35.5 -9.5t-30.5 -25.5v-13zM160 514h2h-2z" />
<glyph unicode="9" horiz-adv-x="454" d="M10 610q0 53 20.5 94t54.5 70t78 44.5t93 15.5q33 -1 68 -7q43 -10 73.5 -41.5t30.5 -85.5q-23 -90 -36 -181t-13 -185v-283q0 -14 -2 -31.5t-8.5 -33t-15.5 -25.5t-23 -10q-23 0 -34 14.5t-16.5 36t-6.5 45t-3 43.5v90q0 66 2 128.5t7 125.5q-43 -27 -91 -26 q-41 0 -73.5 17t-56 46t-36 64.5t-12.5 74.5zM113 600q2 -4 2 -6q0 -6 2 -6l2 -8q4 -8 4 -9l6 -10q2 -4 8 -10t8 -6l13 -6q12 -4 16 -5.5t14 -1.5t27 5q-6 0 -8 -2q6 4 13 6t16 6l12 10q4 0 4 4l8 10q12 16 16 27l37 76l11 35q-4 0 -11.5 2t-11.5 4q2 0 3 -1t3 -1 q-10 2 -18 2h-19q-43 0 -75 -8q4 0 6 1t6 1q-12 -4 -23.5 -9.5t-21.5 -11.5l-27 -24l-10 -15q-2 -2 -5 -10t-3 -14zM115 596l2 -8q0 2 -1 3t-1 5zM125 647l2 4z" />
<glyph unicode=":" horiz-adv-x="151" d="M23 18q0 10 17 30t44 20q10 0 20 -7l9 -6q14 -16 14 -37q0 -6 -1 -11t-3 -11q-14 -33 -49 -33q-16 0 -33.5 16.5t-17.5 38.5zM25 514q4 16 16 27.5t29 11.5h16l16 -6l11 -8q4 -8 9 -15.5t5 -17.5v-21q0 -2 -4 -10l-6 -12l-4 -6q-4 -4 -9.5 -7.5t-15.5 -3.5h-8 q-29 0 -39 25l-6 8q-10 16 -10 35z" />
<glyph unicode=";" horiz-adv-x="161" d="M12 -76q0 16 6.5 32.5t12.5 31.5l8 24q0 4 1 7.5t1 7.5q0 16 13.5 29.5t29.5 13.5q29 0 37 -25t8 -43q-2 -14 -8 -35.5t-15.5 -42t-22.5 -36t-30 -15.5q-23 0 -32 17.5t-9 33.5zM49 467q0 8 10.5 29.5t42.5 21.5q25 0 34 -17.5t9 -31.5v-14q0 -16 -11 -31.5t-28 -15.5 q-6 0 -8 2q-16 0 -32.5 18t-16.5 39z" />
<glyph unicode="?" horiz-adv-x="380" d="M12 756q0 23 18.5 38t45 24t56.5 13.5t50 4.5q35 0 69 -13.5t59.5 -38t42 -60.5t16.5 -81q0 -88 -36 -170t-89 -147l-33 -41q-8 -8 -21 -25l-12 -18q4 -8 4 -25q0 -23 -11 -40t-34 -17q-31 0 -44 31.5t-13 54.5q0 29 11 54.5t28 45.5l39 47q23 20 40 51t33 60l15 26 q4 10 7 18.5t7 18.5l6 15q0 10 4 21t4 30q0 6 -2 12t-2 14v-2q0 -4 2 -6q0 -2 -1 6.5t-3 12.5l-4 8q-4 0 -13 11t-11 16l-9 6q-12 4 -23 7t-26 3h-18q-14 -4 -28.5 -6t-29.5 -2l-18 -11q2 1 12 7q-12 -12 -30 -13q-23 0 -40.5 18.5t-17.5 41.5zM121 -27q0 20 4 31l6 12 q6 8 17.5 14.5t21.5 6.5q25 0 36 -17.5t15 -37.5q0 -15 -4 -27q-2 -4 -3 -7t-5 -7l-6 -9l-19 -12q-8 -4 -14 -4t-10 2l-13 6q-12 6 -19 20.5t-7 28.5zM172 260q0 -4 2 -8l4 -8q0 2 -1 3t-1 5zM176 231q0 4 1 5.5t1 3.5zM268 668q0 -5 2 -9q0 6 -2 9z" />
<glyph unicode="@" horiz-adv-x="913" d="M25 172q0 88 34.5 186.5t96 181.5t145.5 138t182 55q33 0 64 -6q49 -12 111.5 -53t116.5 -97.5t91 -126t37 -141.5q0 -37 -14.5 -61.5t-36 -37.5t-47 -19.5t-47.5 -6.5q-18 0 -37 2t-35 9q-4 -4 -4 -7q-16 -31 -37.5 -61.5t-48.5 -56t-58.5 -42t-66.5 -16.5 q-66 0 -101.5 44t-35.5 102q0 78 54 135t122 74h2q0 -2 -4 -2h2q12 6 31 6q23 -2 45 -5.5t45 -11.5q2 0 8 2t10 2q16 0 27.5 -10t15.5 -24l4 -9q2 -6 13 -6l12 -4q8 -4 18 -4q-4 0 -4 2q6 -2 23 -2q16 0 24 2q-8 0 -10 -2l25 6q-4 0 -6.5 -1t-6.5 -1q16 0 25 8v13 q-2 6 -4 15t-6 13v2q0 2 -1 3t-1 3l-41 70q-8 4 -8 12l-78 84l-25 21q-37 31 -74 47h-2l4 -2q-2 2 -6 2v2q-8 0 -15 4t-13 4l-27 6h2q-10 2 -31 2q-25 0 -49 -6q2 2 4 2t6 2q-23 -6 -42 -15t-40 -19l-26 -21q-18 -14 -35.5 -29.5t-32.5 -31.5l-22 -25q-14 -16 -25.5 -32.5 t-21.5 -32.5l-21 -35q0 -4 -4 -9l-8 -18q-20 -45 -29 -80v-2q-2 -4 -4 -14t-2 -17l-6 -41v-32q4 -12 4 -27v-6v2v-4q4 -20 8 -32.5t8 -16.5l11 -19q0 -2 2 -4v2q0 -2 2 -2v-2l8 -8l8 -8l14 -13q0 -2 3 -2l26 -18q8 -4 15.5 -8t17.5 -8l22 -11q39 -16 39 -61q0 -18 -11 -37.5 t-34 -19.5q-6 0 -10 2q-117 35 -175 117.5t-58 197.5zM141 86q0 -2 4 -10q-4 4 -4 10zM156 55l2 -2q-2 0 -2 2zM360 575l7 5q-4 -2 -5 -2q-2 0 -2 -3zM426 150l4 -9q-2 2 -2 4l2 -2q0 -4 2 -4t6 -4h2q2 -4 15 -4h-6h6l4 -2q-2 0 -2 1t-2 1h22q8 4 15.5 7t15.5 7l-2 -2l8 4 l12 11q14 10 19.5 15t21.5 26l25 32v5q0 2 4 6t4 8l-12 4q-10 0 -15 2h-38q-2 -2 -7 -4q-4 -2 -12 -2l-14 -4l-10 -8l2 2h-2l-3 -2h3h-3l-2 -2v2q0 -2 -12 -11.5t-16 -13.5l-23 -29q0 -2 -1 -3t-1 -3l-6 -16q0 -4 -2 -6v4v-8v4q2 -4 2 -11q0 2 -1 2t-1 3zM428 145l2 -2z M430 141l2 -2zM430 176l2 2q0 -2 4 6l-2 -2q-2 -2 -2 -4t-2 -2zM477 131q2 0 3 1t3 1q-2 0 -3 -1t-3 -1zM508 145q0 1 8 5q-4 -4 -8 -5zM522 252q2 0 4 2q-2 0 -2 -1t-2 -1zM565 256q2 0 4 -1t4 -1l-2 2h-6zM594 238q0 2 2 4l-2 -2v-2zM604 266l2 2zM807 332l2 -4v2 q-2 0 -2 2zM809 319q0 1 2 3q-2 0 -2 -3z" />
<glyph unicode="A" horiz-adv-x="1034" d="M20 -197q0 37 11.5 81t11.5 85v58.5t4 58.5l10 96q2 16 4 33.5t2 34.5v12q2 49 9.5 98.5t17.5 98.5q16 88 35.5 174t42.5 172q-2 6 -2 16q0 16 9 29.5t32 13.5q27 0 47 -19.5t20 -43.5q0 -23 -16 -35q-31 -125 -55.5 -248t-40.5 -250v-39q8 23 16 43.5t19 42.5l145 344 q18 43 37.5 85t42.5 83l29 54q0 4 2 6l6 8q12 23 28.5 49.5t40 49t51 38t62.5 15.5q25 0 49.5 -18.5t44 -45.5t33.5 -59.5t20 -59.5l7 -10q0 -6 4 -10q18 -43 27.5 -89t14.5 -94.5t11 -96.5t20 -93l5 -33q6 -2 20 -2q78 -14 101.5 -61t23.5 -107v-32.5t-4 -26.5v-51 q-2 -10 -6 -20.5t-8 -20.5l-13 -29q-6 -16 -16 -38.5t-22.5 -44t-29 -36t-36.5 -14.5q-29 0 -44.5 19.5t-23.5 47t-9 60.5t-1 57v25q0 4 -1 9t-1 9l-16 111q-2 8 -3 22q-49 -6 -95 -23.5t-93 -17.5q-55 -12 -109.5 -31.5t-109.5 -27.5l-72 -10q-27 0 -35 18l-49 -123 q-8 -20 -17 -52t-18.5 -63.5t-19.5 -58t-20 -35.5q0 -4 -3.5 -5t-3.5 -3q-2 2 -3 -4t-3 -15t-5 -17.5t-7 -8.5v-8q-4 -27 -11.5 -56.5t-41.5 -29.5q-23 0 -37.5 18.5t-14.5 40.5zM41 -29q0 4 2 4v-8q-2 0 -2 4zM311 309q2 2 6 2l19 6q23 10 41 17l78 24q41 12 83 20.5 t85 22.5l-13 -4q41 10 81 20.5t81 16.5q0 2 -2 34t-6 73t-11.5 81t-17.5 62q0 -2 1 -2t1 -2v-2l-14 67l-12 31q0 2 -1 4t-1 4l-29 78q-8 8 -8 17l-13 20l-8 8t-8 11q-10 0 -16 -3l-21 -10l-14 -12q-8 -4 -20.5 -20.5t-16.5 -28.5l-6 -10l-2 -3l2 5l-35 -66 q-41 -76 -74.5 -153.5t-64.5 -157.5q-16 -37 -31.5 -74t-32.5 -76zM676 864q2 0 2 -2q0 -4 2 -4q0 2 -1 3t-1 3h-2zM893 319l16 -120q4 -16 4 -23l7 14l6 56v53q0 -4 -1 5t-5 7l-13 6q-4 0 -7 1t-7 1zM922 309l2 -4q0 2 -2 4z" />
<glyph unicode="B" horiz-adv-x="829" d="M37 137q0 53 6 106.5t16 106.5v156v172v84t2 86q2 16 14.5 28.5t28.5 12.5q18 0 32 -15.5t14 -33.5q-2 -29 -2.5 -57.5t-0.5 -57.5q14 45 41 106.5t67 115.5t95.5 92t126.5 38q96 0 154.5 -58t58.5 -149q0 -80 -31.5 -148.5t-85.5 -115.5l-8 -6l23 -6q92 -29 150.5 -96.5 t58.5 -178.5q0 -86 -37 -160.5t-98.5 -131t-139.5 -92t-157 -41.5h-33q-10 2 -19.5 2t-19.5 4l-45 8q-18 4 -28.5 22.5t-10.5 34.5q0 27 15.5 40t39.5 13h8q14 0 21 -2q27 0 58.5 5.5t58.5 11.5q-4 0 -6.5 -1t-6.5 -1q39 10 76 23.5t72 35.5l-8 -4q25 14 53 39l26 25 q2 0 2 2t3 4l4 4l6 6q10 12 18 29.5t19 27.5l8 13q2 8 5 13t6 11t5 17.5t2 35.5v6q0 2 1 3.5t1 3.5l-2 2v-2v6q0 12 -2 18l2 4q-2 0 -2 2v6q-2 2 -5 11.5t-3 11.5l4 -10q-4 4 -6 11t-6 11v2q-4 0 -4 4l-19 21v2h-2l-4 4l-43 25q-8 8 -23.5 13t-33 8t-34.5 5t-30 4l2 -2 q-10 0 -21 1t-22 1q-35 0 -66.5 -4t-62.5 -10q4 0 6.5 1t6.5 1l-54 -14q-12 -4 -16 -4q-25 0 -39 21.5t-14 43.5q0 18 8 35.5t27 24.5l36 12q63 20 127 51t117 76l21 18l24 35q4 10 12.5 24.5t8.5 24.5v6v-4v4q0 2 1 3t1 4l4 38q0 8 -2 13v4q0 -6 2 -8q-4 4 -3 8t-1 6v-2 q0 4 -2 6h2l-8 14l2 -6q0 10 -7 11l2 -3q-4 4 -4 7l-20 14q-25 10 -59 14h10q-16 0 -32.5 -1t-33.5 -3h2q-16 -6 -31.5 -13t-27.5 -20l-19 -16q-10 -10 -20 -22.5t-18 -26.5l-27 -41q0 -2 -1 -3t-1 -3l-19 -37q-23 -51 -39 -104.5t-32 -106.5q0 -4 -1 -6t-1 -6l-17 -66 q-10 -43 -18 -90t-14 -92q0 -78 1 -154t1 -151q0 -18 -9.5 -41t-33.5 -23q-25 0 -39.5 22.5t-22.5 54.5t-10 68.5t-2 67.5zM199 543q2 2 2 4v2q0 -2 -1 -2t-1 -2v-2zM438 946q4 0 8 2q-2 0 -4 -1t-4 -1zM455 672q4 4 12 8zM485 483h13h-13zM563 774l2 4v-2zM580 907l4 -4v-2 q-4 4 -4 6v0zM582 817v2q0 2 2 4v-2q0 -4 -2 -3h-1zM586 893q0 -2 1 -2t1 -2q0 2 -1 2t-1 2zM647 428h2v-2q0 2 -1 1t-1 1zM672 403l2 -2v2h-2zM686 268q0 2 1 5t1 6v-3q0 -2 -1 -3t-1 -5zM692 350v6v-6z" />
<glyph unicode="C" horiz-adv-x="892" d="M20 369l5 51q10 86 56 179t115.5 170t156.5 126t182 49q51 0 93 -22.5t60 -69.5q8 -16 8 -37q0 -16 -10 -33.5t-33 -17.5q-20 0 -25 11t-20 28l2 -2q-2 0 -2 4l-2 2q-4 0 -9 6t-9 6l-8 4q-6 0 -19 4l4 -2q-6 0 -11 1t-11 1q-14 0 -28.5 -2t-29.5 -6q4 0 6.5 1t6.5 1 q-49 -12 -90 -30l-21 -13q-6 0 -23.5 -11t-37 -28.5t-37 -36t-23.5 -30.5l-18 -23q-16 -20 -32.5 -45.5t-27.5 -48.5q-4 -10 -15 -35.5t-22.5 -52.5t-18.5 -47.5t-5 -20.5v4v-8q0 -4 -1 -8t-1 -8v-21q0 -10 1 -19t3 -20v-10v2l4 -12q2 -12 7 -25.5t5 -19.5l2 -2q0 -4 3 -4 v-2q0 -6 7 -18.5t11 -16.5l12 -18q0 -2 1 -3.5t1 -3.5v2q0 -2 2 -2h-2q8 -12 21 -20l12 -12q0 -4 17.5 -16.5t29.5 -16.5l-4 2q35 -16 73 -26.5t77 -14.5h-2q37 0 70.5 2t68.5 10q-4 0 -7 -1t-8 -1q96 25 185 78q-2 0 -2 -1t-2 -1q27 16 59.5 43t50.5 27q23 0 38 -18.5 t15 -43.5q0 -33 -22 -51q-88 -80 -191.5 -129t-220.5 -49q-98 0 -177 33.5t-132 91t-82 134.5t-29 163zM217 152l6 -7zM262 121q8 -4 10 -4q-2 0 -10 4zM393 84q8 0 13 -2q-4 0 -6.5 1t-6.5 1zM596 815l4 -4zM705 164l6 -19z" />
<glyph unicode="D" horiz-adv-x="819" d="M20 770q0 84 44.5 143.5t125.5 73.5v33q0 4 1.5 14t1.5 15v18q2 16 13 27.5t27 11.5q18 0 29.5 -15.5t13.5 -31.5v-70h13q113 -14 204 -76.5t155.5 -154.5t99 -203t34.5 -217q0 -94 -24.5 -183t-71.5 -163t-116.5 -125t-161.5 -70l-43 -10q-8 0 -16.5 -2t-12.5 -2h-2 q-6 -2 -17 -2q-23 0 -33 19.5t-10 37.5t8.5 29.5t20.5 19t26.5 11.5t26.5 8l56 20q29 10 56.5 22.5t53.5 28.5l-12 -6q10 8 21.5 14.5t21.5 16.5l16 21q10 14 20.5 27t20.5 30l11 16v2q0 2 1 2t1 2q2 2 9 16.5t14 32t13.5 35t6.5 27.5l6 31q4 16 5 30.5t3 30.5v45 q0 47 -8 94v2q0 2 -1 5.5t-1 7.5l-17 59q-6 12 -9 27.5t-11 27.5v2q-2 0 -3 6.5t-5 10.5l-13 26l-37 58q0 2 -2 4q-4 4 -4 6l-16 23l-41 43q-6 6 -12 11t-13 9l-14 12q-10 10 -23.5 17.5t-25.5 15.5l-43 23q-2 0 -2 2q-27 10 -51.5 17t-51.5 11q-2 -23 -2 -43v-43 q-4 -190 -13 -377.5t-25 -377.5q-2 -16 -14.5 -30.5t-31.5 -16.5q-39 0 -49 41q-35 141 -58.5 282t-41.5 287l-12 94q-4 23 -6.5 42.5t-2.5 41.5zM117 758q2 -10 3 -21.5t1 -21.5l12 -94q6 -53 17.5 -110.5t11.5 -109.5q6 92 8 185.5t14 185.5v35v29.5t2 29.5l-32 -16 q-2 -2 -4 -2l2 2l-15 -12q0 -2 -2 -4l-6 -9q-4 -4 -4 -10l-6 -10v-4l2 8q0 -8 -2 -14.5t-2 -10.5v-26zM186 866h7h-7zM264 870h8h-8zM375 842l2 -2zM379 840h2l2 -2q-2 0 -2 1t-2 1zM571 684q0 -4 1 -4t1 -2t2 -2zM623 102l2 4v-2zM633 573l4 -8q-2 0 -4 10v-2z" />
<glyph unicode="E" horiz-adv-x="829" d="M23 391q0 82 24.5 162t67.5 150.5t102 130t131 100.5q2 0 2 1t2 1l21 12q41 25 99 45.5t106 20.5q41 0 68.5 -21.5t29.5 -62.5q0 -18 -9.5 -38t-31.5 -22q-33 0 -45 31l-33 -4q-6 0 -8 -2h-2q-33 -10 -65.5 -22.5t-61.5 -28.5l-10 -6l2 2q0 -4 -9.5 -5t-27.5 -20l-15 -10 q-16 -10 -30.5 -21.5t-28.5 -25.5l-29 -27q-2 -2 -3 -4t-3 -4l-4 -4l-6 -8q-8 -10 -21.5 -29.5t-25.5 -38t-21 -31.5l-8 -14l-6 -8q-8 -18 -15 -36.5t-14 -39.5l-6 -20q0 -2 -1 -2t-1 -3h6q6 0 11 -2h4q16 0 31.5 -1t31.5 -1h18q30 1 61 5q40 6 77 10l47 6q6 2 17.5 4 t19.5 2l-2 -2q-2 0 -2 -1t-2 -1q4 0 5 1t5 1q20 0 38.5 -18.5t18.5 -38.5t-16.5 -30.5t-36.5 -14.5l-53 -9q-47 -8 -90 -14t-84 -6h-59.5t-57.5 4v-19.5t2 -19.5v-2q2 -10 6 -20t5 -19.5t5 -15.5l2 -4v-7q0 -2 2 -2v2l33 -57q0 -4 4 -8l-2 4q0 -2 2 -4l72 -78l18 -14 q29 -23 62 -43.5t67 -36.5l-4 2q63 -29 142 -39q-4 0 -4 2q12 -2 24 -3t27 -1q39 0 78 6t77 17q-2 -2 -6 -3h4q12 4 21 5q23 0 34 -22.5t11 -41.5q0 -31 -25.5 -48t-62.5 -27.5t-77 -13.5t-69 -3q-102 0 -200.5 42t-176 114.5t-125.5 167t-48 198.5zM127 342v2v-2zM143 285 q0 -2 2 -2v-2q0 2 -2 4zM180 598l4 8q-4 -4 -4 -8zM403 39q9 -4 11 -4q-2 0 -11 4zM547 895q2 0 2 1t2 1h4h-4z" />
<glyph unicode="F" horiz-adv-x="520" d="M29 827q0 88 24.5 148.5t67.5 97.5t99 52.5t120 15.5q23 0 48.5 -1t47.5 -12l31 -12q16 -16 30.5 -28.5t14.5 -38.5q0 -16 -13.5 -29.5t-39.5 -13.5q-20 0 -23.5 5t-7.5 7l-25 6q-6 2 -15 2t-9 2h-23q-27 0 -52 -5t-52 -11l12 4q-16 -4 -39.5 -16.5t-34.5 -12.5h-2l2 2 q-4 -4 -12 -8l-28 -33q-6 -8 -13 -22q-10 -27 -10 -86v-58q0 -70 5 -135t7 -131q10 -1 20 -1q25 0 49 4q34 5 68 11l136 21q8 0 16 3t18 3q2 0 3 -2l-3 -2q-2 0 -2 -1t-2 -1q4 0 6.5 1t6.5 1q18 0 36.5 -17.5t18.5 -39.5q0 -23 -16.5 -32t-36.5 -13l-152 -27q-41 -8 -80 -11 t-80 -5q2 -47 3.5 -94.5t1.5 -94.5q0 -45 6 -89t6 -89l4 -23q4 -20 4 -32v-23q0 -6 1 -11t1 -11v-7q4 -12 8 -25t4 -26q0 -20 -11 -35.5t-30 -15.5q-18 0 -31.5 12.5t-22.5 28.5t-13 35.5t-6 34.5v34q-12 57 -17.5 113.5t-5.5 114.5q0 160 -9 314.5t-9 307.5zM143 936 q1 4 7 10q-6 -10 -7 -10zM172 -78q0 -2 1 -3t1 -3z" />
<glyph unicode="G" horiz-adv-x="929" d="M20 336q0 98 32 194.5t79 184.5q16 31 48 81t76 99t98.5 85t113.5 36q18 0 45 -6t43 -23l37 -35l-4 9q14 -14 14 -41q0 -18 -11 -36t-28 -18q-10 0 -17 4t-16 11l-8 6q-6 4 -16 9t-21 5h2l-2 2h-8q-4 0 -8 -1t-8 -1h-2q-2 0 -2 -1t-2 -1h2h-2q-16 -4 -50 -23.5t-57 -48.5 l-12 -12l-2 -2q-2 0 -2 -2l-2 -2q-35 -39 -64.5 -80t-50.5 -84l-6 -10q-6 -6 -12.5 -19.5t-13.5 -31t-14 -36t-11 -32.5l-13 -39q0 -23 -10 -58.5t-10 -64.5v-41q0 -10 1 -19t3 -20v-10q0 -6 5 -20.5t9 -26.5l9 -20q0 -4 2 -11.5t6 -7.5v2l6 -6l10 -15t12 -9l41 -27 q33 -14 72 -19h-8q8 -2 16 -2h17q23 0 45 3.5t45 7.5h-2q6 0 8 2q-4 0 -6 -2l12 4q-2 -2 -6 -2q31 8 58.5 20t54.5 29l-11 -6q27 16 50.5 36.5t48.5 45.5l59 71q16 20 30.5 44t32 44.5t39 35t52.5 14.5q20 0 33.5 -12.5t20.5 -31t9 -40t2 -37.5q0 -31 -4 -60.5t-4 -60.5v-12 q0 -53 9 -105.5t9 -105.5q0 -14 -1 -33t-5 -36t-14 -28.5t-29 -11.5q-25 0 -35 18.5t-14 38.5l-6 48q-2 4 -2 14l-8 63q-4 33 -7.5 64t-3.5 63v41t5 43l-21 -35q-4 -4 -16.5 -16t-12.5 -16v-2l2 2l-71 -84q-70 -66 -155 -106t-181 -40q-135 0 -225.5 91.5t-90.5 273.5z M129 264v6q0 -6 1 -8t1 -4q-2 2 -2 6zM143 469v2v2v-4zM154 188l6 -8zM205 629q2 0 2 2t2 4l2 2q-4 -8 -4 -6zM457 899l2 2q-2 0 -2 -2zM481 903l4 -2q-2 0 -2 2h-2zM678 305q2 0 2 2t2 4l-2 -4v-2h-2zM743 203q2 0 7 6zM793 350q0 -2 1 -3t1 -3v2v6h-2v-2z" />
<glyph unicode="H" horiz-adv-x="702" d="M33 709q0 66 4 127t16 125l6 32q4 16 15.5 31.5t31.5 15.5q23 0 34.5 -21.5t11.5 -39.5q0 -10 -1 -19.5t-4 -19.5l-12 -119q0 -20 -2 -30v-15q0 -100 2 -199.5t15 -199.5v-2q0 4 40.5 15t93 22.5t101.5 20.5t66 13l51 23q0 84 4 167t10 169v35q0 35 -1 71.5t-3 71.5 q0 16 8 35.5t31 19.5q25 0 37 -26.5t18 -64.5t6 -81v-73l-6 -97v-21t-2 -22v-22q-4 -25 -4 -53.5v-51.5q0 -14 6 -22t29 -12l18 -9q8 -4 13.5 -11t5.5 -9l6 -10q2 -6 2 -17q0 -16 -9 -35.5t-32 -19.5q-6 0 -9 2t-12 2h-12q0 -78 7.5 -155.5t7.5 -155.5v-21.5t-4.5 -27 t-12.5 -23.5t-24 -10q-25 0 -39.5 27.5t-21.5 67.5t-9 85t-4 78l-4 96q-8 -8 -47 -20.5t-91.5 -24.5t-106.5 -20.5t-91 -8.5q-4 0 -5 1t-3 1v-34.5t2 -36.5l4 -43q0 -4 1 -5t1 -3v-5q0 4 -2 9l2 -4v-7q0 -2 2 -2l10 -41q0 -4 2 -6q-2 2 -2 4l2 -2v-2q0 -2 2 -2v-2 q0 -4 7.5 -16.5t7.5 -26.5q0 -23 -12.5 -42t-37.5 -19q-27 0 -45 29.5t-29.5 69.5t-16.5 83t-5 72v41v21t-2 22q-10 94 -13 189t-3 194zM145 954q2 0 2 2q0 6 3 11zM166 145v5v-5zM459 446q0 1 4 3q-2 0 -4 -3zM592 381h2l4 2q-4 0 -6 -2z" />
<glyph unicode="I" horiz-adv-x="256" d="M45 948q0 4 1 7t1 8v2q0 18 10.5 38.5t32.5 20.5q35 0 43 -33t8 -69q0 -106 9.5 -212t19.5 -212.5t20.5 -212t14.5 -211.5q0 -18 -9.5 -41t-33.5 -23q-25 0 -36 17.5t-15 40.5l-13 92q-16 180 -33.5 355t-17.5 353v52q0 8 -1 14t-1 14z" />
<glyph unicode="J" horiz-adv-x="454" d="M8 59q0 20 12.5 38t34.5 18q8 0 21.5 -8.5t29 -17.5t32 -18.5t32.5 -11.5h-14h16t18 2q-8 0 -10 -2q8 2 15.5 6.5t15.5 8.5l-2 -2l16 14l35 47q0 2 4 10l8 17q8 18 19.5 44.5t11.5 45.5v2v-4q4 14 6 28.5t6 28.5l7 45q0 10 2 17v6q0 16 2 31.5t2 31.5v33q0 45 -6 92 q-10 82 -23.5 165t-13.5 167q0 10 1 17.5t1 17.5v2q0 16 9 37.5t32 21.5t35 -16.5t14 -36.5q10 -117 31.5 -232.5t21.5 -234.5q0 -20 -2 -53t-2 -49q0 -18 -4 -59.5t-15.5 -90.5t-29 -100t-45 -93t-65.5 -70t-89 -28q-27 0 -56.5 11.5t-55 31t-42 43t-16.5 47.5zM303 252 q0 2 1 2t1 2q0 -2 -1 -2t-1 -2z" />
<glyph unicode="K" horiz-adv-x="747" d="M35 264q0 147 2 292t6 292q0 18 9 40.5t34 22.5q23 0 38 -18.5t15 -38.5v-209q2 -47 2 -94v-94q-2 -12 -2 -25.5v-25.5q20 33 42 61.5t48 56.5l123 135q16 27 43 46.5t49 44.5l17 14q0 2 4 6l37 47q0 6 4 10q0 -2 -1 -2t-1 -2l2 4q6 14 10 27v2q10 33 43 33 q25 0 36 -20.5t11 -37.5q0 -37 -18.5 -71.5t-44 -66t-56 -60.5t-55.5 -53l-8 -7l-4 -4q2 0 2 2q-2 -2 -2 -4v2l-4 -8l-78 -88l-6 -6l-6 -6v-2q-2 -2 -3 -4t-6 -4l-73 -93l-35 -55q-6 -6 -6 -10l2 2q-2 -2 -2 -4l-10 -17v2v-2q0 -2 -3 -2v-4q0 4 3 6q0 -2 -1.5 -4t-1.5 -4 t3 -4l2 -4q2 -4 10 -12l45 -33q55 -16 111.5 -30.5t113.5 -28.5l113 -29q20 -6 47 -10t48.5 -11.5t36.5 -22.5t15 -42q0 -16 -10 -35.5t-33 -19.5l-55 6q-59 6 -128 17t-134.5 28.5t-125 42t-99.5 57.5q-2 0 -2.5 1t-2.5 1l2 -2q0 -8 3.5 -21.5t3.5 -17.5l4 -24 q4 -23 16 -49.5t12 -45.5q0 -23 -13 -43t-36 -20q-33 0 -52 41t-30.5 97.5t-15.5 115.5t-4 96zM152 109l2 -13q0 2 -1 4t-1 9zM205 295v2l2 2z" />
<glyph unicode="L" horiz-adv-x="731" d="M31 221q0 121 2 239t12 236l6 52v20t4 16q-2 -4 -2 -8v-2q2 76 13 154v76q-2 4 -3.5 12t-1.5 10v6q-2 6 -2 21q0 18 9.5 36.5t33.5 18.5q23 0 35.5 -16.5t17.5 -40t6 -50t1 -47.5q0 -39 -4 -83t-4 -76v-7q0 -14 -1 -27t-3 -28l-9 -100q0 -14 -1 -26.5t-1 -26.5v-19 q-2 -6 -2 -16q-2 -82 -3 -163t-1 -163q0 -16 2 -29.5t6 -21.5v-6q0 -4 4.5 -12.5t4.5 -14.5l2 -4q0 -2 4 -6l2 -2l12 -14l-6 6q2 -2 6 -8.5t6 -6.5v-2q4 -2 6 -4t6 -4q-2 0 -2 2l13 -8l-9 4l13 -6l-2 2q8 0 16 -4t19 -4h-5q33 0 66 -3t65 -3q76 0 150 18q-2 0 -3 -1t-3 -1 l76 20q20 4 45.5 13.5t48.5 9.5t37 -18.5t14 -42.5q0 -33 -41 -57.5t-97.5 -42t-117.5 -27t-102 -9.5h-62t-66.5 5.5t-65.5 17.5t-56 35l-21 18l-10 15q-4 2 -4 3t-2 3q-31 47 -41 94t-10 98zM141 162q0 -2 1 -2t1 -2q0 2 -1 4t-1 8v-2v-6zM147 141q0 -4 3 -4v-4q0 2 -1.5 3 t-1.5 5zM150 133l2 -2v-2zM178 96l8 -4zM500 86h6h-6z" />
<glyph unicode="M" horiz-adv-x="1034" d="M61 10v13q0 205 0.5 407.5t4.5 409.5q0 20 9 39.5t34 21.5q14 0 26 -10t19 -25q8 14 30.5 22.5t44.5 8.5q25 0 43.5 -13.5t34 -35t27.5 -48t24 -52.5l15 -43q8 -23 22.5 -56t14.5 -53v2q0 -6 4 -6q0 2 4 -9.5t10 -25.5t12 -25.5t11 -11.5h-2q0 -2 2 -4q4 -4 6 -4v-2 q4 -2 10 -6t22 -21l-2 2l2 -2h7h-7q10 0 19.5 2t17.5 9q-4 -4 -4 -5q6 4 12.5 11.5t12.5 13.5l14 14q2 6 8 9l152 174q14 20 29.5 47.5t35 52.5t42 42t51.5 17q33 0 53 -31.5t30.5 -82.5t14.5 -116t4 -128q0 -106 -3 -177t-3 -136v-90l4 -35v4v-6v2q0 -16 9 -29.5t10 -32.5 q0 -25 -14.5 -45t-37.5 -20q-29 0 -45 23.5t-25.5 56t-11.5 66.5t-2 54v39t2 39l4 74q0 16 1 31.5t1 31.5q0 72 -4 146t-4 145v35q-2 6 -2 19q-25 -35 -45 -64t-49 -61l-53 -60q-16 -16 -29.5 -35.5t-30.5 -35.5l-41 -43q-25 -27 -51 -41.5t-61 -14.5q-61 0 -101.5 44 t-68 105.5t-48 130t-44.5 118.5l-9 14v-6q-2 -10 -2 -27v-8q0 -16 -6 -28.5t-6 -26.5l-2 -6l-2 -3q0 2 2 7v-4q-2 -4 -2 -13l-29 -121q0 -37 -6 -72.5t-6 -74.5l-8 -49v-316q0 -20 -10.5 -42.5t-34.5 -22.5q-23 0 -39.5 18.5t-16.5 40.5zM211 764h2h-2zM217 766q2 0 6 4 q-2 -2 -4 -2t-2 -2zM219 776l4 -4zM221 774q0 -2 2 -2v2h-2zM229 772q2 0 2 1t2 1q-2 0 -2 -1t-2 -1zM410 596l6 -8q-4 4 -4 6zM451 520q6 -6 6 -10v2q-6 2 -6 8zM467 498q2 -2 4 -2l-2 2h-2zM483 485q2 0 4 -2q-2 0 -2 1t-2 1zM528 496q2 0 4 2q-2 -2 -4 -2zM979 66v6v-6z " />
<glyph unicode="N" horiz-adv-x="694" d="M25 569q0 20 4 47t13 50.5t23.5 39t36.5 15.5q35 0 74 -23.5t77 -61.5t69.5 -83t54.5 -88h2q0 -2 2 -2l33 -33l59 -72q23 -29 46.5 -54t47.5 -50q0 6 1 12t1 13v22q0 96 -12 187.5t-12 183.5q0 23 2 52.5t12 51.5l12 25q10 14 18.5 26.5t26.5 12.5q23 0 35.5 -18.5 t12.5 -41.5q0 -10 -2.5 -15t-2.5 -15v-21q-2 -10 -4 -23.5t-2 -25.5v-16q14 -86 19.5 -178.5t5.5 -182.5q0 -27 -3 -62.5t-12.5 -67.5t-24.5 -54.5t-40 -22.5q-31 0 -62.5 22.5t-61.5 55.5t-57.5 70t-51.5 63l-33 37l-19.5 19.5t-17.5 21.5l-45 68l-4 4q0 -4 -2 -4t-11.5 17 t-22.5 38.5t-29.5 39t-30.5 17.5h2l-2 2l-11 8q-2 0 -3 1.5t-3 1.5v-17q0 -29 2 -54.5t2 -53.5q0 -115 -1 -227.5t-1 -225.5q0 -20 -10 -44t-37 -24q-23 0 -39 18.5t-16 41.5v172q0 102 -4 202.5t-4 202.5zM135 594v2v2v-2v-2zM137 598q2 2 2 3t2 3q0 2 2 2l-4 -4 q-2 -2 -2 -4zM152 565q0 -2 4 -2q2 0 2 -2l-2 2q-2 0 -4 2z" />
<glyph unicode="O" horiz-adv-x="706" d="M31 385q0 63 19.5 135t60.5 133.5t102 101.5t145 40q63 0 129 -33l45 -31l5 -4l8 -6q61 -55 99 -127t38 -158q0 -59 -14 -108q-12 -43 -47 -99.5t-86.5 -107.5t-116 -86t-133.5 -35q-68 0 -116 41t-79 100.5t-45 126t-14 117.5zM127 357.5q0 -25.5 6 -35.5v-7 q4 -14 8 -39.5t13 -31.5l22 -41q0 -4 6 -10l27 -31q2 -4 10 -12l2 -3q0 -10 21.5 -15t25.5 -5h-6h27.5t27.5 4q-4 0 -7 -1t-7 -1q63 12 114.5 54t92.5 83l-6 -6l4 4q2 2 2 3t2 3l10 13q6 8 12.5 15t10.5 15l14 27q4 10 9 21.5t5 21.5l5 18q0 4 1 8.5t1 8.5v41q-2 4 -2 12 l-19 72v-2l-2 4l-20 39l-5 6q-6 6 -14 15t-16.5 18.5t-14.5 13.5q-2 0 -2 1t-2 1l-32 20q-12 0 -32 9.5t-36 11.5h8q-16 0 -32.5 -1t-32.5 -3q4 0 6 2q-4 -2 -6 -2t-4 -2h-3h3q-12 -4 -25.5 -9.5t-24.5 -9.5l-47 -34q-4 -4 -7 -7.5t-7 -7.5l-6 -8q-6 -6 -12.5 -12t-10.5 -13 l-14 -22q-2 -2 -2 -3t-2 -3t-2 -4q2 -2 2 0v2q0 4 2 6q0 -8 -11.5 -30.5t-15.5 -37.5v-2q0 -18 -5 -37.5t-5 -38.5v-2q0 -2 -1 -3t-1 -3v-37.5zM133 315v7v-3q0 -6 2 -10q-2 0 -2 6zM137 473q2 2 2 4v4q0 -2 -1 -2t-1 -2v-4zM154 242v2v-2zM182 190l4 -4zM219 147l8 -4 q-6 4 -8 4zM242 133h4h-4zM385 162q4 4 12 8zM442 664q0 -2 4 -2l-2 2h-2zM532 590q4 -4 5 -6q-3 0 -5 6zM575 481q0 -4 1.5 -5t1.5 -3v-2v4q0 2 -1.5 3t-1.5 3z" />
<glyph unicode="P" horiz-adv-x="651" d="M29 721q0 25 1 48t1 48q0 20 9 43t34 23q23 0 38 -18.5t15 -39.5q0 -84 1 -165.5t11 -163.5q23 53 57.5 125.5t83 139t110 114t138.5 47.5q63 0 88 -38t25 -85q0 -78 -23.5 -154t-68.5 -134t-110.5 -94t-149.5 -36q-18 0 -38 2t-32 14q-10 -27 -20.5 -52.5t-20.5 -51.5 l-10 -29l2 2l-8 -41q-4 -14 -6 -27.5t-4 -27.5q16 -47 19 -97t3 -100q0 -20 -10 -43.5t-37 -23.5t-42 22.5t-24.5 55t-12.5 69.5t-3 68q0 16 1 32.5t3 32.5v222q0 10 -1 21t-3 22q-10 66 -13 134t-3 136zM61 104q0 -8 2 -8q0 2 -1 4t-1 4zM262 500q84 12 148 53l-4 -4 q16 10 32.5 24.5t30.5 30.5l-8 -12q10 12 19 25.5t18 27.5v-2v2l2 4l18 45q2 23 9.5 47.5t7.5 46.5q-12 0 -22.5 -1t-20.5 -3h2q-31 -8 -53.5 -25.5t-41.5 -39.5v2l-22 -31q-18 -27 -36.5 -51.5t-33.5 -52.5l-16 -31q-2 -2 -2 -4v2q-4 -8 -7 -15.5t-8 -15.5zM297 506 q2 2 12 2q-4 0 -6 -1t-6 -1zM399 721l4 4zM494 784q4 0 8 2q-2 0 -4 -1t-4 -1zM537 788h4h-4zM547 786q2 0 2 -1t2 -1q-2 0 -2 1t-2 1zM551 784q2 0 3 -1t5 -1q-4 0 -5 1t-3 1zM623 668v2v-2z" />
<glyph unicode="Q" horiz-adv-x="892" d="M23 373q0 88 32.5 187t94 183t151.5 138.5t205 54.5q38 0 69 -8q55 -20 91 -58q35 0 51 -28l26 -35q53 -82 85 -178.5t32 -192.5q0 -119 -47 -209t-139 -147l-12 -6q10 -20 22 -37t12 -39q0 -20 -11 -35.5t-32 -15.5q-23 0 -48 31.5t-42 56.5q-86 -25 -174 -25 q-102 0 -172 30t-113 81t-62 115.5t-19 136.5zM127 344.5q0 -16.5 2 -33.5v2q0 -2 2 -5t2 -7l4 -16q2 -8 4 -16.5t6 -12.5v-2q0 -2 3 -4l8 -19q4 -10 6 -10q-4 0 -4 4v2q0 -4 6 -6l18 -20q0 -2 2 -2l2 -2q10 -10 24.5 -17.5t29.5 -13.5h-4q23 -10 46 -14.5t48 -8.5 q-2 0 -2 2q16 -2 29.5 -3t29.5 -1q55 0 109 13l-21 51q-12 20 -18 43l-2 6q0 -4 1 -6t1 -4t2 -2q-2 0 -2 2v4l-31 78q-4 4 -4 10l-2 4q0 -4 2 -4q-2 0 -2 4l-2 2q-4 12 -11.5 26.5t-15.5 24.5l-6 6q-18 18 -18 50q0 23 13 41t36 18q16 0 31.5 -14.5t29 -36t23.5 -45 t18 -41.5l12 -29q0 -8 7.5 -20.5t11.5 -24.5l6 -16q0 -18 16.5 -48t26.5 -47l41 21l-4 -4q10 8 23.5 17t23.5 24l2 2l-4 -4q2 0 4 2l6 10q18 20 29 43l2 2q-2 -2 -2 -4t-2 -2l4 4v4l4 4l8 23q4 10 12.5 44t8.5 56q0 20 -3 38.5t-3 39.5v2q0 2 -2 4v2v-2v4q-10 49 -29 98 l-6 19l-2 2q-2 0 -2 2l-11 27l-49 88q-16 0 -25.5 17t-19.5 22l-10 8q-4 2 -24.5 11t-59.5 9q-18 0 -37.5 -3t-38.5 -7h2q-86 -18 -139 -70l-39 -37q-6 -6 -17.5 -20t-23.5 -29.5t-20.5 -31t-8.5 -21.5l-5 -11t-12 -27.5t-14 -35t-12 -32.5l-14 -58q0 -10 -1 -19t-3 -20v-20 v-32.5zM186 199q0 -2 2 -2l2 -2q-4 0 -4 4zM256 700q2 0 8 9l-6 -7zM436 809q6 0 10 2q-4 0 -6 -1t-4 -1zM535 817h6h-6zM748 512q0 -2 1 -3t1 -3v2q-2 2 -2 4z" />
<glyph unicode="R" horiz-adv-x="698" d="M20 16l7 680q0 18 10 40t33 22q35 0 44 -41t9 -94q0 -31 -1 -61t-1 -54q16 47 39 86l67 123q6 6 11 16l6 10q18 33 43.5 73t57.5 73t72 55.5t87 22.5q35 0 65.5 -15.5t53 -41t35 -58.5t12.5 -68q0 -29 -5.5 -57.5t-15.5 -52.5q-33 -84 -84 -134.5t-112.5 -86t-127 -64.5 t-126.5 -67l10 8l-47 -37q-2 -2 -2 -4t-2 -4q0 2 1 2t1 4v-6q-2 -2 -2 -6q16 -10 32.5 -18.5t34.5 -16.5l-12 6q78 -39 160 -73t164 -79q10 -6 29.5 -17t40 -26.5t34.5 -35t14 -39.5q0 -27 -11 -44.5t-34 -17.5q-12 0 -24 6q-72 35 -134.5 72t-148.5 80l12 -6 q-45 20 -92 37.5t-90 42.5q-4 -25 -6 -49.5t-2 -49.5v-26q0 -23 -10.5 -46.5t-36.5 -23.5q-25 0 -41.5 19.5t-16.5 41.5zM225 477q47 23 97.5 44.5t97.5 49.5l-2 -2q16 10 30.5 22.5t30.5 24.5l15 17q0 -2 -1 -2t-1 -2q14 14 23 34.5t24 34.5l2 2l2 2v3q4 6 13 26.5t9 30.5 l-2 -4q0 4 2 12t2 12v11q0 4 -2 6v6v-2v-4v2v2v-2l-2 4l2 -2q0 2 -1 3t-1 3l-2 2l2 -2l-2 2v-2v2l-14 14q-6 4 -13.5 9.5t-15.5 5.5h-6q-2 0 -3 1t-3 1l2 -2q-8 0 -14.5 -1t-12.5 -1q4 0 7.5 1t7.5 1q-8 -4 -25.5 -9.5t-17.5 -9.5l2 2q-8 0 -23.5 -15t-19.5 -22l-9 -8 q-37 -41 -61 -86l-6 -12q-2 -2 -2 -4q0 2 2 4q0 2 -2 2q-4 -12 -10.5 -22.5t-12.5 -20.5l-43 -72q-4 -4 -4 -8l-28 -57q-8 -16 -11 -25zM262 557q2 2 3 4t3 4q-4 -8 -6 -8zM330 672l2 2q0 2 2 2zM508 840h10h-10zM541 700l2 2v3zM557 817q0 -2 2 -4q0 -2 2 -2zM561 750 q0 6 2 8v-2q0 -2 -1 -3t-1 -3zM561 809l2 -4v4h-2zM565 797q0 -2 1 -2t1 -2q0 2 -1 2t-1 2zM565 797v4v-4z" />
<glyph unicode="S" horiz-adv-x="743" d="M18 639q0 72 37 125t93.5 88t124 51.5t128.5 16.5h27.5t28.5 -2q8 -2 20 -7.5t24.5 -10.5t24 -9t15.5 -4q25 -16 24 -49q0 -23 -12 -36.5t-29 -13.5q-12 0 -20 7l-58 14h-16q-29 0 -54.5 -3t-51.5 -7h2q-2 0 -2 -1t-2 -1q2 0 2 2q-4 -4 -15.5 -7.5t-27 -8.5t-29.5 -9 t-23 -8l-32 -18q-2 -2 -4 -3q-2 0 -3 -2h-2l2 2q-8 -6 -17 -13t-15 -13l-33 -39q0 2 1 2t1 2q-4 -4 -4 -8q-2 -2 -2 -4l2 4q-4 -8 -4 -12l-2 -2l2 4q-4 -12 -4 -21v2q0 -8 2 -12v-10q2 -2 2 -7l2 -2q0 -4 2 -4l12 -22q4 -4 9.5 -10.5t11.5 -10.5l10 -8v-2h-2h2 q23 -16 47.5 -30.5t48.5 -24.5h-2q47 -20 125 -45t153.5 -64t130 -95t54.5 -140q0 -55 -28.5 -94t-71.5 -64t-93.5 -37t-95.5 -12q-109 0 -217 45q-20 8 -51 21.5t-60.5 31t-51 39t-21.5 45.5q0 23 11 37t30 14q12 0 20 -4l27 -12q0 -2 2 -3t12 -5l12 -6q2 0 3.5 -1t3.5 -1 l43 -19l-4 2q47 -23 96 -38t100 -19h-6q10 0 18.5 -1t18.5 -1q23 0 43 2t41 8l-12 -4q49 12 98 41l-8 -4q10 6 12 8t22 23v-2l5 4v4l2 2q0 -2 -2 -2l2 4v10v-14v12v-4v4q-2 2 -2 4t-3 6l-8 15q-4 0 -11 11t-13 15l-15 15q-2 0 -2 2l-2 2h-2l2 -2q-2 0 -2 2l-10 8 q-23 16 -45.5 29.5t-46.5 25.5l12 -6q-43 18 -118.5 40.5t-151.5 60.5t-131.5 96.5t-55.5 144.5zM117 657v5v-5zM123 676q0 2 1 2t1 2q0 -2 -2 -4zM125 166h2h-2zM190 745q3 1 5 3q-2 -2 -2 -3h-3zM262 504l10 -4q-2 0 -10 4zM315 797h7h-7zM567 238h2l2 -5zM606 197l4 -4v2 q-2 0 -2 1t-2 1zM612 143l4 4l-2 -2zM616 152h2v2q1 2 3 4v-2q-4 -4 -5 -4zM623 158v4v2v-6zM623 164v2v-2zM623 166l2 -6q0 4 -2 6z" />
<glyph unicode="T" horiz-adv-x="903" d="M8 674q0 31 24.5 47t62.5 24.5t83 12.5t86 10q117 16 234.5 36.5t240.5 20.5q8 0 25.5 -1t34 -3t29.5 -4l14 -2q0 -4 -6 -6q20 0 37.5 -17.5t17.5 -39.5q0 -16 -12.5 -29.5t-34.5 -13.5q-23 0 -33 4h-8q-8 0 -12 2h-72q-70 0 -139.5 -12.5t-135.5 -24.5v-2 q0 -92 1 -182.5t1 -182.5q0 -27 -1 -57.5t-5 -52.5v-19v-29.5t4 -27.5q0 2 -2 2q0 -8 4 -12l5 -15q4 -12 8 -28v-19q0 -18 -10.5 -34.5t-30.5 -16.5q-12 0 -21 6h-2q-23 10 -35 37l-14 41q-6 18 -7 39.5t-1 42.5q0 33 3 61.5t3 59.5v6v183t2 184l-192 -31q-25 -4 -48.5 -5 t-50.5 -3q-18 0 -32.5 14t-14.5 37zM342 283q0 2 1 3t1 5v-2q0 -2 -1 -3t-1 -3zM444 125q0 -4 2 -8q-2 2 -2 8z" />
<glyph unicode="U" horiz-adv-x="884" d="M12 389v36.5t2 37.5l13 170q0 12 2 20v17q0 18 9 39.5t32 21.5t37 -17.5t14 -35.5q0 -55 -4 -110.5t-8 -110.5v-47v-29.5t2 -30.5l6 -59l18 -64l27 -47l28 -28q20 -16 46 -27h-5q25 -8 54 -12h-13q4 0 9.5 -1t9.5 -1q16 0 29.5 2t29.5 6q-2 0 -4 -1t-4 -1q20 4 40.5 10 t46.5 24.5t58.5 54.5t75.5 99l19 33q12 12 22 34.5t19.5 50.5t16.5 55.5t13 47.5q-2 -4 -2 -6t-2 -2q0 4 3 10.5t3 12.5l31 155l23 185q2 18 15 34.5t34 16.5q23 0 36 -19.5t15 -40.5l6 -86q14 -199 26.5 -390t12.5 -384q0 -39 -9 -70.5t-42 -31.5q-23 0 -37 18.5t-14 38.5 q0 115 -5.5 230.5t-13.5 232.5q-20 -66 -58 -143.5t-92.5 -144t-125 -111.5t-156.5 -45t-141.5 38.5t-88 99t-46 131.5t-13.5 134zM27 655q0 2 1 4.5t1 6.5v-13v-2q-2 0 -2 4zM109 291l8 8v-6zM109 457v2v-2zM109 459q0 4 2 4v-2zM117 291q2 -2 2 -4zM236 125q2 -2 6 -2 q-4 0 -6 2zM410 145l8 5z" />
<glyph unicode="V" horiz-adv-x="872" d="M16 674q0 16 9.5 32.5t29.5 16.5q23 0 37 -23l37 -71q2 -8 10 -25q-2 0 -2 2l15 -35q2 -4 4 -9t2 -7l16 -33q35 -90 92.5 -199.5t116.5 -201.5q0 -4 2 -4l27 -33q8 -12 14 -16q2 0 4 1t4 1l21 20l-4 -4l-2 -2l2 2l30 39l56 94q2 2 1 4t1 2h2l-2 -2l69 152 q25 53 46.5 109.5t47.5 115.5q6 12 15.5 45t24 68t32 61.5t35.5 26.5q20 0 32.5 -17.5t14.5 -33.5v-54l-27 -84l-79 -190q-29 -84 -67 -164t-81 -156q-12 -23 -29.5 -51t-40 -55t-49 -44.5t-57.5 -17.5q-37 0 -70.5 36t-63.5 85t-54.5 101.5t-40.5 83.5l-39 73 q-89 168 -140 342q-2 6 -2 19zM156 563q2 -4 2 -8q0 2 -1 4t-1 4zM385 115q6 -6 4 -6q0 2 -2 4q-2 0 -2 2zM422 66h2l-2 2v-2zM455 90l2 2z" />
<glyph unicode="W" horiz-adv-x="1067" d="M23 756q0 18 12 36.5t35 18.5q27 0 47 -39t33.5 -91t20.5 -105.5t7 -79.5l8 -43q16 -92 33 -183.5t45 -177.5l8 -26q27 66 54.5 147.5t60.5 155t72 126t88 58.5q45 0 83 -29.5t65.5 -70.5t46 -82t28.5 -64l37 -67q10 -23 20.5 -43.5t28.5 -42.5q4 23 7 45t7 45l48 409 q4 25 6 50.5t4 50.5l4 53q0 4 1 19.5t7 33t17.5 30.5t29.5 13t29.5 -11t17.5 -26.5t7 -32t1 -28.5q0 -14 -1 -26.5t-1 -26.5q-12 -145 -29.5 -290t-39.5 -290q-4 -18 -7 -54t-12.5 -71t-25 -61.5t-41.5 -26.5q-41 0 -79 51t-74 121t-68.5 141.5t-61.5 112.5l2 -4l-31 33 l-14 6l10 -4q-8 4 -10 4h-6q-2 0 -3 -1t-3 -1l-33 -51q-35 -74 -63.5 -148t-57.5 -149q-10 -25 -22.5 -59t-27.5 -64.5t-33.5 -52t-39.5 -21.5q-29 0 -52 39t-43.5 100.5t-38 138t-31 153.5t-22.5 146.5t-15 116.5l-7 45q-2 2 -2 6v7q0 2 -2 2v-4q-2 4 -1 9t-1 11l-18 66 q-4 0 -4 6v2q-10 20 -10 39zM33 715q0 -4 4 -8q-4 4 -4 8zM57 623h2v-5q-2 2 -2 5zM176 498q0 -2 1 -5.5t1 -5.5v9zM236 -14l2 2q0 2 4 6q-4 -4 -4 -6zM242 -4v-2v2v-2l2 4q0 -2 -2 -2zM244 0v-2l2 4zM514 362l2 7q0 -2 -2 -2v-5zM551 424q2 0 2 2zM604 381q0 -2 2 -2 q0 -2 1 -2t1 -2q-4 4 -4 6zM838 66q2 2 2 6v-4zM842 74q2 0 2 2v-2h-2zM903 86l6 -4zM938 844q0 2 1 4t1 6q-2 -4 -2 -8v-2z" />
<glyph unicode="X" horiz-adv-x="792" d="M20 -33q0 35 16.5 70t33.5 63q53 102 117.5 188.5t140.5 180.5q-39 57 -69 117.5t-62 124.5q-14 8 -20.5 26.5t-6.5 34.5q0 20 10 39.5t33 19.5q18 0 42 -31.5t48.5 -75.5t49 -90t44.5 -73l68 88q8 10 20.5 25.5t14.5 13.5l-4 -4q8 10 14 19.5t16 19.5q4 6 14.5 16.5 l20.5 20.5t18.5 20.5t8.5 16.5q2 0 -10 -4q8 8 22 12h12q23 0 41.5 -19.5t18.5 -44.5q0 -27 -31 -41l-4 -4q-23 -27 -43.5 -56.5t-44.5 -53.5l-2 -2q0 -4 -5 -10.5t-10 -10.5l-69 -94q6 -6 11 -13t11 -16l43 -61q0 -2 2 -4v2q27 -47 70 -85t64 -79l6 -10q0 -2 2 -4 q0 -2 2 -2l-2 2q2 -4 4 -5t4 -4q29 -35 61.5 -75.5t32.5 -87.5q0 -20 -12 -40t-35 -20q-29 0 -39 27l-12 24l-8 9v2q-8 10 -15.5 19t-17.5 20l-31 32l-20 29q-4 0 -4 6q-53 55 -98.5 116.5t-86.5 123.5q-6 0 -22.5 -20.5t-35 -46t-35.5 -51.5t-23 -34q-35 -47 -63 -96 t-60 -98v-2q-2 -6 -11 -19l-24 -51q-8 -14 -22.5 -31.5t-30.5 -17.5q-25 0 -36.5 19.5t-11.5 39.5zM156 29l2 2q0 -2 4 6zM526 381v2l2 -2v-2q-2 0 -2 2zM528 379l2 -2q-2 0 -2 2zM545 580q0 2 2 4q-2 -2 -2 -4zM575 139l5 -4v2q-2 0 -2 1t-3 1zM668 27l6 -7q-6 6 -6 7z" />
<glyph unicode="Y" horiz-adv-x="720" d="M8 807q0 16 10.5 31.5t28.5 15.5q27 0 42 -29.5t26.5 -70.5t20.5 -84t22 -68l8 -18q4 0 10 -10.5t10 -10.5l23 -12q0 -2 2 -2h-2h2q14 -6 27.5 -9t27.5 -8h2q4 0 7.5 -1t7.5 -1q20 0 43 7q-2 0 -2 -2q27 10 45 20h-2q2 0 2 1t2 1l8 6l-2 -2q23 16 42 34.5t42 41.5l45 57 l86 125q2 2 3 5t5 7h-2q0 14 18.5 24.5t28.5 10.5q23 0 37 -18.5t14 -40.5q0 -31 -2 -62.5t-6 -62.5l-61 -627q-6 -35 -12.5 -75.5t-6.5 -71.5l-6 -23q-6 -33 -37 -35q-18 0 -29.5 11.5t-17.5 27t-7 33t-1 31.5v24q2 8 2 16.5v16.5l10 101q10 111 20.5 219t24.5 219l6 49 l-16 -20q-25 -31 -52.5 -62t-61 -54.5t-71.5 -38.5t-81 -15q-57 0 -104.5 24.5t-80 64.5t-50 90t-17.5 101q0 -2 2 -2v4l-2 2v4q-2 2 -2 6l-14 56l-3 2l-2 8q0 2 -1 3t-1 3q-8 14 -8 33zM18 768q0 -2 2 -4zM39 688v8v-4v-4zM182 567q2 -4 3 -4t3 -2q-4 0 -4 2q-2 2 -2 4z M203 551h4h-2h-2zM268 532q2 0 4 -1t4 -1q-6 0 -8 2zM311 532q2 2 13 3q-4 0 -6.5 -1.5t-6.5 -1.5zM446 623l9 8q-2 -4 -4 -5t-5 -3zM510 -23v-4v-6v10z" />
<glyph unicode="Z" horiz-adv-x="1001" d="M87 852q60 22 145 36.5t178.5 22t158.5 7.5q66 0 112 -45.5t46 -110.5q0 -74 -37 -137.5t-92 -122t-119.5 -113.5t-120.5 -113l-36 -38l2 2q-2 -2 -2 -4l-11 -9q-12 -25 -34.5 -50t-38.5 -52l-9 -8l2 2q0 -4 -4 -9.5t-4 -9.5l-4 -14h2q2 -2 6 -2h-2q14 -4 27.5 -5 t28.5 -3h-9q29 -4 55.5 -4h55.5q111 0 226.5 7t228.5 30l41 6q14 0 27.5 2t29.5 2q23 0 34 -20.5t11 -37.5q0 -29 -16 -45l-11 -6q-8 -8 -22 -15t-29 -11q2 0 3 1t3 1q-10 -6 -22 -9h2q-121 -29 -244 -37t-246 -8q-66 0 -119 6.5t-90.5 22.5t-58 45t-20.5 72 q0 57 29.5 113.5t72.5 108.5t94 100.5t94 86.5l43 39q16 16 33 31.5t33 32.5l18 20q16 16 48 49t47 95v4q2 4 2 8q0 -2 -3.5 5t-21.5 11h2q-14 4 -35 9q-6 0 -11 -1.5t-9 -1.5q-18 -2 -59.5 -5t-90.5 -7t-102 -9t-96 -11t-71 -12.5t-28 -12.5l4 4q-2 0 -4 -1t-4 -1 q-6 0 -18 4l-15 6q-36 19 -36 56q0 31 60 53zM106 733h5h-2h-3zM111 733q0 2 4 2zM209 96q0 -2 2 -4v2q-2 0 -2 2zM209 96q0 -4 4 -4h-2l2 -2l-2 2q-2 2 -2 4zM219 86q4 0 6 -2q-2 0 -2 1t-2 1h-2zM526 606l2 2v2q0 -2 -1 -2t-1 -2zM604 716v17l2 -18q-2 0 -2 1zM616 776 l5 -4zM625 764q0 -2 2 -2v2h-2zM874 -25q6 0 9 2q-2 -2 -4.5 -1t-4.5 -1z" />
<glyph unicode="\" horiz-adv-x="356" d="M8 758q0 18 12.5 32.5t26.5 14.5q25 0 40 -31t29.5 -76t27 -96t30.5 -92l8 -21q0 -10 10.5 -30.5t14.5 -36.5l14 -43l22.5 -45t14.5 -47v2q0 -2 2 -4l-2 2q4 -8 2 -8t2 0l66 -158q10 -23 17 -48.5t7 -49.5q0 -20 -9 -41t-36 -21t-39 24.5t-20 47.5q-35 92 -77 183 t-65 187l-4 13q-29 70 -47 141l-37 143q-4 12 -7 26.5t-3 31.5zM80 743q2 -4 2 -12q0 8 -2 12zM180 492v2v-2zM260 281v4v-4z" />
<glyph unicode="^" horiz-adv-x="323" d="M14 705q0 18 10.5 27t22.5 13l2 3q0 4 -1 10t-1 12q0 16 6 30.5t10 30.5v-2q0 2 8.5 33t26 67t41 65.5t54.5 29.5q29 0 45 -31.5t16 -60.5l6 -27v-11t2 -13q2 -8 4 -15v2q0 -10 2 -12l13 -45q6 -25 13 -46.5t9 -45.5q0 -23 -9 -42.5t-36 -19.5q-12 0 -27.5 15.5t-29 40 t-22.5 53.5t-9 55l-25 -67q-2 -14 -5 -34t-10 -37t-20.5 -29.5t-33.5 -12.5q-4 0 -4 4q-20 4 -39 19.5t-19 40.5zM152 930l2 -4v2zM152 932q0 -4 2 -8v2v2v2q-2 0 -2 4v2v-4zM264 879q0 -4 1 -5.5t1 -5.5q0 2 -1 4.5t-1 6.5z" />
<glyph unicode="_" horiz-adv-x="569" d="M23 43q0 39 30.5 49t63.5 14l172 -6q74 -4 118 -9t68.5 -12t35.5 -17.5t21 -22.5q10 -16 11 -31q0 -23 -18.5 -33t-32.5 -10q-10 0 -30 6t-36 6q-66 6 -133.5 5.5t-132.5 -0.5h-70q-68 0 -67 61z" />
<glyph unicode="a" horiz-adv-x="661" d="M20 109q0 41 16.5 85t47.5 80.5t75 61t99 24.5q90 0 162 -57t117 -133v25q0 49 -4.5 96t-4.5 96v2q0 2 -2 4t-2 4h2l-16 58l-4 4q-2 2 -2 10l-12 16l-5 9q0 -2 2 -5q-2 0 -2 3q-2 2 -2 4l-8 10q-4 2 -9 6t-5 6l-35 19q-6 0 -18 4l-33 4q-10 2 -29 2q-25 0 -49 -6q4 0 6 1 t6 2q-18 -4 -37.5 -12t-35.5 -20l4 4l-6 -4h2l-43 -33q-6 -6 -23 -14l-4 -4q-10 -10 -23.5 -14.5t-21.5 -4.5q-29 0 -43 23.5t-14 50.5q0 20 9 39.5t31 22.5q12 0 23 -7l10 7q41 41 97.5 65.5t117.5 24.5q92 0 147.5 -40t85 -100.5t39 -134.5t9.5 -141v-57v-21.5t-2 -21.5 l-10 -50q-10 -41 -16.5 -85t-6.5 -80v-19q0 -20 -10 -42.5t-35 -22.5q-23 0 -38 17t-15 40v27q-2 0 -2 -1.5t-2 -1.5h2q-47 -10 -93.5 -17t-93.5 -7q-51 0 -103 10t-94 33.5t-69 61.5t-27 94zM121 100q2 -4 4 -5t2 -3v-2h2q2 -2 2 -4v2l6 -8l33 -19q20 -8 43 -12t45 -8 q-2 0 -2 2q4 -2 14 -2h-4h4q10 -2 19.5 -2h19.5q23 0 45.5 1t44.5 3l80 6q0 4 -1 6t-1 6h-2q0 -2 2 -2l-2 4v-2v2q0 2 -4 11l-12 22q-4 8 -8.5 15.5t-10.5 13.5q0 -2 2 -2q-6 0 -6 10l-37 41q-14 10 -14 14l4 -6l-2 2l-20 17q-20 14 -41 22l6 -4q-12 6 -25.5 9t-27.5 8h4h-9 q-2 0 -3 1t-3 1l2 -2h-19t-20 -3q4 0 7 3l-13 -5q2 2 6 2q-2 -2 -8 -2h2q-16 -4 -30 -14q0 4 4 4q-18 -10 -33 -28q2 2 2 4l-2 -2l-16 -19q0 -2 -5 -6l-12 -18l-10 -29q-2 -2 -2 -6l2 -17q-2 4 -2 9v2v-11zM125 96q4 -8 6 -8q-2 0 -2 2h-2q0 2 -1 3t-1 3zM164 190q0 1 2 3 q-2 0 -2 -3zM172 465q2 0 2 1t2 1q-2 0 -2 -1t-2 -1zM190 215q2 2 5 2q-2 0 -2.5 -1t-2.5 -1zM270 236h4h5h-9zM473 70q0 -7 2 -7q-2 0 -2 7zM506 459l2 -2l4 -8q0 2 -1 3t-1 3q-2 0 -2 2zM526 391q0 -2 1 -2t1 -2q0 2 -2 4zM535 172q0 2 1 2t1 2q0 -2 -1 -2t-1 -2z" />
<glyph unicode="b" horiz-adv-x="821" d="M29 1014q0 20 10 40.5t37 20.5q31 0 48 -49t27.5 -116.5t15.5 -139.5t9 -115l10 -98q2 -14 4.5 -26.5t2.5 -24.5v-41q0 -47 7 -94t9 -95l6 -90q20 43 60 105.5t91.5 121t113 99.5t126.5 41q55 0 95 -19.5t65 -52t37 -74.5t12 -88q0 -68 -24.5 -127t-66.5 -106t-97.5 -80 t-118.5 -49l-74 -18q-6 -2 -16 -2q-20 0 -32.5 18t-12.5 39q0 23 25.5 42t61.5 36.5t74.5 34t67.5 32.5l-2 -2q23 14 47 39l45 57l4 9l9 22q0 4 2 6l6 29v18q0 2 1 2t1 3l-2 2v-2v18q0 8 -2 14l-6 25l-19 27q-4 0 -7 3t-5 3h2q-20 8 -45 12h2h-39h2q-35 -10 -59.5 -25.5 t-51.5 -36.5l-45 -45q-23 -23 -41 -50t-34 -52l-31 -47q-4 -10 -9.5 -16.5t-9.5 -12.5l-4 -8v2l-10 -24q-8 -18 -19.5 -46t-26.5 -52.5t-31.5 -43t-35.5 -18.5q-25 0 -41 14t-25 33.5t-13.5 43t-4.5 42.5q0 16 3.5 39.5t3.5 32.5l-5 79q-8 139 -18 286t-27 290l-12 98 q-2 6 -2 17l-6 22q-2 12 -4 24.5t-6 24.5q-2 6 -2 19zM440 317l2 2l2 3zM528 395l11 6q-4 0 -11 -6zM582 422q6 0 8 2q-2 0 -4 -1t-4 -1zM653 182l6 8v-2l-4 -4zM711 356q0 -2 1 -3t1 -3v-2v4z" />
<glyph unicode="c" horiz-adv-x="675" d="M25 254q0 16 1 30.5t3 30.5q2 31 20.5 94.5t55 128t95 116t138.5 57.5h8q4 0 16.5 2t22.5 2q57 0 97.5 -40t56.5 -87q2 -6 2 -19q0 -16 -9.5 -32.5t-27.5 -16.5q-10 0 -27.5 12.5t-17.5 24.5h2q0 6 -11.5 16.5t-9.5 10.5l-14 12q-6 0 -14.5 5t-18.5 5q-14 0 -22 -4 l-29 -4q-14 0 -29.5 -7t-27.5 -13l2 2q-2 0 -2 -1t-2 -1l-47 -39q0 -2 -5 -7l-6 -8q-6 -8 -15 -22.5t-17.5 -27.5t-15.5 -24l-7 -10q0 -2 -1 -3t-1 -3l-27 -59q-2 -2 -2 -10l-12 -60q0 -14 -2 -22v-45l6 -45q4 -14 7 -26.5t7 -25.5l2 -2q0 -4 3 -6q0 2 -1.5 2t-1.5 2 q0 -2 3 -2v-2l2 -2l8 -18q4 -8 9 -15.5t9 -15.5l-2 2l4 -4l6 -6l21 -25l41 -29q29 -10 53 -12h-6q29 0 55.5 2t55.5 8q-4 0 -7.5 -1t-7.5 -1q53 12 102.5 33t98.5 43q4 2 14 2q27 0 39 -21.5t12 -39.5q0 -29 -36.5 -56.5t-88 -50t-108.5 -37t-96 -14.5q-76 0 -132.5 35 t-94.5 89t-57 121.5t-19 133.5zM127 203q2 0 2 -4v2zM145 141q2 -2 2 -4q0 2 -2 4zM281 575q2 2 4 3zM371 602h2l4 2zM451 575q0 -4 2 -4v2z" />
<glyph unicode="d" horiz-adv-x="864" d="M4 190q0 76 50 142.5t127 118t168 81t175 29.5h19.5t19.5 -2q45 -6 76 -37l6 70q2 23 3 46.5t5 45.5q0 2 2 38t8.5 88t15.5 112.5t23.5 112.5t35 87t48.5 35q31 0 40.5 -25.5t9.5 -48.5q-12 -127 -24.5 -252.5t-45.5 -248.5l-25 -93q0 -14 -2 -20v-145 q0 -100 10.5 -199.5t22.5 -200.5q0 -16 -10 -39.5t-35 -23.5q-29 0 -45 38t-24.5 91t-11.5 112.5t-5 100.5l-4 61q0 -2 -4 -6q-33 -53 -76 -102.5t-95 -86t-111.5 -59t-125.5 -22.5q-98 0 -159.5 58t-61.5 144zM106 184q2 0 3 2v-2h-3zM109 172v2l2 -4q2 -4 4 -7t2 -5v2v-2 l6 -8q-2 0 -2 2q-2 2 -4 6h2q6 -8 14 -15l8 -6q14 -10 31.5 -14t34.5 -6h-8q25 0 48 1t48 7q-4 0 -7 -1t-7 -1q29 6 56.5 17.5t53.5 27.5v-2q23 14 42.5 30.5t37.5 32.5l53 66q14 18 27.5 38.5t26.5 41.5l18 31q-2 -2 -2 -5l2 2v3v6q0 8 -2 12h2q-2 0 -2 2v2v-2v4h-2l2 -2 l-4 4l4 -6q-4 0 -4 8l-4 2l2 -2q-6 6 -4 6l-2 -2h2q-8 4 -9 4l-16 4h-31q-16 -2 -31.5 -4t-29.5 -6q2 2 4 2t6 2q-70 -16 -138.5 -45.5t-121.5 -64.5l4 4q-6 -4 -17 -12.5t-22.5 -17.5t-19.5 -17t-8 -11l-13 -14q-4 -4 -7 -10t-7 -12q-4 -8 -8 -15v2q-2 -2 -2 -4t-2 -6 t-4 -10q0 2 1 2t1 2q0 -4 -2 -6t-2 -6v-27zM109 172v4v-4zM109 199q0 2 1 3t1 3v2q0 -4 -1 -5t-1 -3zM147 133l15 -6zM211 326q2 0 6 4zM391 168l10 6zM584 438l2 -2v2h-2zM594 424v2v-2zM666 598q0 2 1 2t1 2q0 -2 -1 -2t-1 -2z" />
<glyph unicode="e" horiz-adv-x="602" d="M18 315v9q0 10 4.5 23t20.5 26l14 6q0 4 2 6q12 43 35 87t55.5 80t75.5 57.5t94 21.5q70 0 113 -37t43 -98q0 -39 -16 -76q-25 -53 -59.5 -85t-76.5 -49.5t-87.5 -23.5t-88.5 -6q0 -10 5 -14v-4q0 2 -2 2l2 -2l-2 2q0 -2 2 -4q0 -2 2 -3v3l55 -62q10 -12 26.5 -21.5 t30.5 -17.5l-2 2q23 -12 49 -16h-2q2 0 3 -1t3 -1h2q20 0 31 2h-2q4 0 8 2h-2h6q18 6 40 19.5t45.5 26.5t45 23.5t39.5 10.5q25 0 38.5 -19.5t13.5 -42.5q0 -41 -31 -59l-21 -10l5 2q-47 -31 -96.5 -60.5t-106.5 -29.5q-45 0 -92 20.5t-88 54t-70 78.5t-35 94 q-4 27 -15.5 42.5t-11.5 41.5v-2q-2 0 -2 2zM25 348h2q2 4 2 8zM147 244q0 -2 3 -4v2q-2 0 -3 2zM152 238l2 -2q-2 0 -2 2zM166 373q23 4 45 4t45 10q-4 0 -6 -1t-6 -1q16 4 43.5 15.5t34.5 11.5h-3l23 20q0 2 2 4l25 35q0 4 4 12l4 9q-2 -2 -2 -5v-2l2 4v7q-14 6 -19.5 6 t-11.5 4h2h-6h4h-6h-27.5t-25.5 -2q4 0 6 1t6 1q-25 -6 -43 -19q0 2 2 5l-14 -13q-6 -4 -12.5 -9t-12.5 -11l-8 -8q-6 -8 -12 -16.5t-11 -14.5l-6 -14q-4 -4 -4 -7zM248 483q4 0 8 4zM313 121q2 0 2 -1t2 -1h2q-2 0 -3 1t-3 1zM313 408q2 0 6 4zM371 500q2 0 4 -2zM377 496 q0 -2 2 -2v2h-2zM381 494q0 -2 2 -2v2h-2zM524 68q2 0 6 4q-4 -4 -6 -4z" />
<glyph unicode="f" horiz-adv-x="540" d="M8 444q0 23 9.5 38.5t31.5 19.5l109 20q6 137 21.5 277.5t43.5 277.5q12 55 27.5 133t41 149t63.5 121t91 50q27 0 47.5 -11.5t34 -27.5t23.5 -37.5t20 -40.5l13 -27q0 -2 2 -4h2q0 -2 4 -6q2 -2 2 -4l-2 2q8 -16 8 -31q0 -16 -10 -29.5t-25 -13.5q-6 0 -19.5 11.5 t-26.5 28t-24.5 36t-11.5 35.5l-10 12q-6 0 -6 4h-4h-4q-2 0 -4 3h2h-4q-2 -2 -7 -5q-8 -4 -10 -4l-2 -2q-4 -4 -6 -4l2 2l-4 -4l-4 -4l2 2l-18 -29q0 -2 -3 -2v-2q-10 -18 -19 -41.5t-16.5 -47t-12.5 -43t-5 -32.5l-4 -10q-37 -147 -63.5 -323t-26.5 -340q57 0 111.5 12 t113.5 12q27 0 36.5 -9.5t21.5 -23.5q10 -14 10 -32q0 -20 -26.5 -30.5t-67.5 -15.5t-88.5 -9.5t-85.5 -12.5l-29 -6q-2 -59 -3 -120.5t-1 -121.5q0 -63 6 -125.5t16 -124.5l4 -28q0 -2 1 -3t1 -3l11 -54q2 -6 2 -20q0 -16 -10.5 -35.5t-32.5 -19.5q-25 0 -41.5 28.5 t-26.5 73.5t-15 101.5t-7 112.5t-2 107.5v84.5v127q-23 -4 -47.5 -8.5t-51.5 -4.5q-20 0 -32.5 16.5t-14.5 34.5zM403 1380l3 2q-2 -2 -3 -2zM424 1411q4 0 4 4l-2 -2q0 -2 -2 -2zM438 1423q2 0 4 2zM449 1427l8 3h-4q-2 -2 -4 -3z" />
<glyph unicode="g" horiz-adv-x="811" d="M20 -905q0 23 13.5 41t36.5 18q10 0 20 -6q35 -29 79 -53.5t87 -28.5q-2 0 -2 1t-2 1q8 -2 24 -2t32 2t32 6h-2q55 16 106 47l-12 -6q51 33 90 74q-2 0 -2 -2q31 31 58 78l8 14q8 12 16 31l35 96v8t4 8v3q16 57 25.5 128.5t9.5 137.5v18q2 8 2 16.5v16.5 q0 113 -10.5 225.5t-10.5 225.5l-82 -72q-66 -57 -146.5 -88t-158.5 -31q-47 0 -86 18.5t-68.5 50t-46 71.5t-16.5 83q0 82 40 153t102.5 122t138.5 80.5t149 29.5q57 0 97.5 -5t66 -14t40 -20.5t20.5 -23.5q0 -2 1 -2t1 -2q12 4 18 4q23 0 39 -18.5t16 -41.5v-4 q-2 -27 -5 -52t-11 -52l-12 -39l8 -74q8 -123 15 -243.5t7 -243.5q0 -109 -9 -213.5t-38 -208.5q-20 -76 -60 -151.5t-97.5 -137t-131 -99.5t-161.5 -38q-100 0 -174 57l-52 39q-2 6 -8 8l-14 15q-10 8 -14.5 20t-4.5 25zM70 -979l4 -4h2l-4 4h-2zM160 205q0 -2 3 -9.5 t7 -11.5l4 -4q0 -2 2 -2h-2l14 -12q0 -4 5 -4l12 -8q12 -10 22 -13h-2q6 -4 16.5 -6t12.5 -2h8h-4q23 0 42 1t42 7q-8 0 -10 -2q78 20 151 66l-6 -4q31 20 66 45.5t57 56.5l10 10q14 16 20.5 28.5t10.5 27t7 33t9 47.5v22l-2 2q-4 4 -10 4t-16 4l-33 6q-12 2 -27.5 4.5 t-19.5 2.5h-10q-10 0 -17.5 1t-17.5 1q-51 0 -96 -13l12 4q-47 -14 -90 -34.5t-72 -53.5l-2 -2q-4 -4 -5 -6t-5 -4l-19 -25q-23 -27 -37 -51l-6 -12v2q0 -2 -4 -6l-12 -29q0 -10 -4 -21.5t-4 -23.5v-12v6v-8v2q0 -4 2 -6zM160 205v2v-2zM170 184l2 -2l2 -4v2q-4 0 -4 4z M178 289l2 2l4 8q-2 0 -2 -2q-2 -2 -2 -4t-2 -4zM250 135q4 0 5 -1t3 -1h-4q-2 2 -4 2zM326 -930q2 2 5 2t7 2zM639 -582q0 2 1 2t1 2q0 -2 -1 -2t-1 -2z" />
<glyph unicode="h" horiz-adv-x="739" d="M18 1210q0 20 11.5 37t31.5 17q27 0 45.5 -51.5t31 -123t19.5 -149.5t11 -131l37 -444q0 -10 1 -21.5t3 -21.5q12 49 31.5 98t49 89t69.5 65.5t96 25.5q76 0 122 -44t71.5 -108.5t37.5 -139.5t19 -136l18 -285q0 -4 1 -6t1 -6v-4v4v-2q0 -4 2 -6v-2q0 -4 1 -6t1 -4v-5 q0 -23 -9 -46t-38 -23q-16 0 -28.5 13t-16.5 30l6 -12l-16 47q-23 92 -24 184t-11 184l-6 49q-2 0 -2 5v10l-3 11t-7.5 26.5t-8.5 32t-8 28.5v2q-4 0 -4 5t-2 5v-2l-6 17q-4 4 -6 9t-7 9l-18 21q-2 0 -2 2l-23 12l3 -2q-10 4 -17.5 4h-17.5q-8 0 -16.5 -1t-18.5 -3h2 q-12 -2 -23 -10v2q0 -2 -2 -2h2l-10 -6q-12 -10 -18 -19l-21 -29q-2 -2 -2 -4l-6 -12q-12 -27 -21.5 -55.5t-17.5 -57.5q-6 -27 -16 -66.5t-23.5 -77.5t-32 -65.5t-40.5 -27.5q-27 0 -41.5 22.5t-22.5 55t-10 70.5t-4 71l-17 195q-10 162 -22.5 320.5t-32.5 318.5l-6 38 q0 -4 2 -4q0 2 -1 3t-1 3l-2 15q-4 12 -7.5 24.5t-7.5 22.5q-2 6 -2 18zM35 1135v2q0 -2 1 -3.5t1 -3.5v-2q-2 2 -2 7zM152 141q0 1 4 9q-2 -2 -2 -4.5t-2 -4.5zM348 393q0 6 4 10v-2zM393 453q2 0 6 4q-4 -4 -6 -4zM426 469q6 0 10 2q-4 -2 -10 -2zM532 434h3q0 -4 2 -4z M551 399h2v-4zM553 395l2 -2q0 -4 2 -4q-2 0 -2 2q-2 2 -2 4zM582 289q0 -4 1 -4t1 -2v-2v6zM582 291v6v-6z" />
<glyph unicode="i" horiz-adv-x="196" d="M43 238q0 55 3 110.5t7 108.5q2 18 16.5 33.5t32.5 15.5q31 0 41.5 -26.5t8.5 -47.5l-7 -127q0 -2 -1 -3t-1 -3v2v-6v-49q0 -29 4.5 -57.5t4.5 -57.5v-2q4 -12 4 -18q0 -4 1 -6.5t1 -4.5v-2v-2v4l2 -6q0 -6 2 -10l6 -25q2 -6 2 -18q0 -16 -10 -35.5t-33 -19.5 q-27 0 -43 29.5t-25.5 70.5t-12.5 84t-3 68zM76 823v35t4 41.5t13 34.5t30 14q18 0 27.5 -11t13.5 -27.5t4 -36v-33.5v-64q0 -16 -8 -36.5t-31 -20.5q-16 0 -26.5 10t-16.5 25.5t-8 34t-2 34.5zM143 293v6v-6z" />
<glyph unicode="j" horiz-adv-x="313" d="M-367 -596q0 18 9.5 39.5t33.5 21.5q20 0 32.5 -17t21 -44t15.5 -55.5t17 -48.5l7 -13q8 -20 24 -47l23 -35q8 -10 15 -19t17 -17l13 -13q33 -23 59.5 -35t59.5 -16l-3 2q23 0 40.5 1t39.5 5q-4 0 -7 -1t-7 -1q43 10 78 34t57 64h2q2 2 2 5v2q0 2 2 2l27 69l-2 -2l6 21 q4 29 9 57.5t5 56.5v31q0 74 -6 154t-18 159l-17 107q0 2 -2 2v6q0 4 -2 13.5t-4 17.5l-10 53q-10 49 -20.5 99.5t-20.5 99.5q-16 70 -33.5 141.5t-17.5 140.5v27q0 16 8 35.5t29 19.5q14 0 20 -5t9 -12t6.5 -15.5t9.5 -14.5q-2 2 -2 4l-2 2l6 -12v-2q0 -4 2 -4v-6 q0 -2 2 -4l-2 2h2q2 -10 3 -18.5t5 -18.5l19 -90q51 -213 97 -431t46 -442q0 -86 -16.5 -173t-55.5 -157.5t-102.5 -114.5t-157.5 -44q-80 0 -147.5 42t-115.5 103.5t-75.5 132t-27.5 127.5zM-141 -842q2 -2 4 -2h-2zM-137 -844l4 -4zM-33 -893h10h-10zM16 1106 q0 16 12.5 27.5t28.5 11.5q23 0 39.5 -19.5t16.5 -40.5q0 -16 -12.5 -26t-28.5 -10q-23 0 -39.5 18t-16.5 39zM162 471q0 -2 2 -4v-4v-4zM178 -791l4 7q-2 -2 -2 -4t-2 -3zM184 -780h2v2zM186 -127q0 -2 1 -3t1 -5v6z" />
<glyph unicode="k" horiz-adv-x="802" d="M33 59q0 39 5 76t5 78v10q0 102 1 203.5t1 206.5v203q2 27 2 51v51v53q0 47 7 76t48 29q29 -10 36 -44t7 -69q0 -20 -1 -37.5t-1 -30.5v-124q0 -63 1 -127t1 -127v-205q0 -23 1 -47.5t1 -46.5q0 4 3 8q12 45 37.5 97t59.5 95t74.5 72t84.5 29q29 0 57.5 -21.5t28.5 -56.5 q0 -4 -1.5 -6t-1.5 -6q-23 -78 -77 -144.5t-107 -128.5q12 -4 23.5 -5t23.5 -3h-6q16 0 33.5 -3t34.5 -3h-2q16 -2 32.5 -2h32.5q47 0 96.5 5t94.5 5l86 6q23 0 35 -18.5t12 -40.5q0 -14 -6.5 -29.5t-22.5 -19.5l-96 -25q-80 -23 -152 -23h-74.5t-80.5 5.5t-81 15.5t-71 31 q-12 -14 -26.5 -36t-30 -41.5t-30.5 -32.5t-30 -13q-23 0 -36 11t-20 27.5t-9 36t-2 35.5zM137 76v2v8v-10zM143 168l4 4q0 4 -1 6t-1 6v-10q0 -2 -1 -3t-1 -3zM256 199h2l-2 2v-2zM276 264q0 2 3 4q0 -2 4 11l-2 -5q-2 -2 -2 -4q-2 -2 -3 -4v-2zM281 184q2 0 4 -1t4 -1 q-2 0 -4 1t-4 1zM336 356q2 0 2 2q2 0 2 2q0 -4 -4 -4zM340 170q2 0 3 -1t3 -1q-2 0 -3 1t-3 1zM340 360l2 2zM371 449l2 2l4 8l-4 -8z" />
<glyph unicode="l" horiz-adv-x="200" d="M51 1245q0 16 8.5 31.5t28.5 15.5q25 0 39 -40t22.5 -96t10.5 -114.5t2 -95.5q0 -66 -4 -128t-4 -128v-12q0 -41 -2 -80t-2 -80q0 -119 8 -234.5t22 -230.5q0 -18 -9 -41.5t-34 -23.5q-31 0 -47 49t-23.5 119.5t-9.5 147.5t-2 134q0 72 1 143.5t5 145.5l11 180 q0 16 1 33.5t1 36.5q0 25 -1 49.5t-3 48.5l-7 80l-8 41q0 14 -2 21v10q-2 6 -2 18z" />
<glyph unicode="m" horiz-adv-x="1122" d="M18 506q0 27 1.5 53t3.5 53q2 16 13 28.5t27 12.5q25 0 35.5 -32.5t14.5 -79.5q3 -38 3 -77v-20.5v-19.5q0 -38 3 -68q0 -2 14 43t42 99.5t70 100.5t95 46q47 0 76.5 -29.5t46 -71.5t24 -89t11.5 -80l6 12q14 27 40.5 68t61.5 78.5t75 64.5t83 27q39 0 69.5 -20.5 t54 -52.5t41 -67.5t29.5 -66.5l31 -92q35 -84 55.5 -170t49.5 -172q2 -6 2 -21q0 -20 -11.5 -39.5t-33.5 -19.5q-27 0 -47.5 38t-37 90t-29.5 108.5t-26 90.5l-22 66q-4 8 -7 23.5t-7.5 31t-10.5 28.5t-12 17l2 -2q-2 2 -2 4l-18 39q-4 4 -5.5 7.5t-3.5 7.5l-28 28 q0 4 -6.5 7.5t-10.5 5.5l-14 6q-12 -4 -14 -4h2q-12 -2 -23 -11l4 4q-10 -6 -19 -13t-18 -17l-20 -21q-14 -6 -34.5 -36.5t-31.5 -49.5l-12 -18l-4 -4l-21 -49q-8 -20 -19 -46t-25.5 -47.5t-30 -37t-29.5 -15.5q-25 0 -37 20.5t-18 49t-8 59.5t-5 53l-10 95q-2 4 -3 11t-1 9 l-16 57q-2 4 -6.5 9.5t-4.5 9.5l-10 10q-2 0 -4 2h-10l-8 -4l-17 -14q-12 -12 -20 -24.5t-19 -28.5l-12 -19q0 -2 -1 -3t-1 -3l-6 -12q-20 -45 -40.5 -102.5t-35.5 -104.5l-18 -80q-4 -8 -2 -16.5t-2 -12.5v-2q0 -20 -10.5 -41.5t-32.5 -21.5q-23 0 -39.5 17.5t-16.5 39.5v2 q-20 102 -29.5 206.5t-9.5 209.5zM145 152v6v-6zM156 94v2v-2zM260 424l4 8zM342 524q0 -2 4 -2h-2h2q0 -2 2 -2zM348 520h4h-4zM354 516h2l2 -2q-4 0 -4 2zM373 489q0 -4 2 -6q-2 2 -2 6zM389 422q0 -2 2 -2v4l-2 4v-6zM725 481q2 0 6 4q-4 -4 -6 -4zM817 461q0 -2 2 -2 l4 -6q-4 4 -4 6zM854 395q0 -2 2 -2q0 -4 2 -4q-4 0 -4 6z" />
<glyph unicode="n" horiz-adv-x="909" d="M35 135q0 51 2 102.5t8 104.5v111q0 47 1 94t1 94q0 18 9.5 41t33.5 23q23 0 38 -18.5t15 -39.5v-180v-145l-6 -66l31 45q18 27 49 76t71 97t87 84t98 36q49 0 87 -25.5t66.5 -63.5t50 -82t40.5 -81q47 -90 94 -176t78 -182q4 -12 4 -23q0 -20 -12.5 -39.5t-34.5 -19.5 q-33 0 -43 28q-55 113 -111.5 224.5t-116.5 222.5l-20 31q0 2 -1 3t-1 3l-25 28q-2 0 -6 4l-4 5l-20 12l8 -4q-10 2 -18.5 3t-18.5 1q4 0 6 2q-4 -2 -6 -2t-4 -2l4 2q-2 -2 -6 -2h2q-8 -2 -25 -10l4 2q-16 -10 -29.5 -21.5t-23.5 -21.5l-78 -103q-29 -39 -57.5 -78 t-52.5 -77q-10 -16 -22.5 -41t-27 -47.5t-29.5 -40t-30 -17.5q-20 0 -32.5 13.5t-18.5 33t-7 42t-1 40.5zM141 53l2 2v2q-2 -2 -2 -4zM141 96q0 -4 2 -6q0 2 -1 3t-1 3zM143 57q0 2 1 3t1 3q-2 -2 -2 -4v-2zM143 90q0 -6 2 -8q0 2 -1 4t-1 4zM434 446q2 0 6 5q-4 -5 -6 -5z M551 416l4 -8z" />
<glyph unicode="o" horiz-adv-x="606" d="M23 305q0 63 19 128t59 117t103.5 84t153.5 32q18 -2 38 -2t38 -11l25 -12q4 -4 6 -4l2 -2l12 -6q61 -47 82 -125t21 -152q0 -53 -15.5 -118.5t-49.5 -124t-87 -98.5t-129 -40q-68 0 -120 31t-88 80t-53 108.5t-17 114.5zM123 264q2 -2 2 -4v2zM123 305q0 -12 2 -24.5 t2 -22.5l14 -49l21 -39q0 -2 1 -2t1 -2t2 -2l-2 4q6 -8 17.5 -20.5t15.5 -12.5h-2q2 0 2 -2l43 -27l-2 3q20 -10 41 -11h-5q4 0 8.5 -1t8.5 -1q20 0 43 6q-4 0 -6 -1t-6 -1q12 4 25 8.5t26 12.5l-4 -4l26 22q4 2 13 11l36 49l2 4l19 47q0 2 1 3t1 5q0 2 2 6q-2 0 -2 -2v-6 q8 33 12 72v59l-4 37q0 4 -1 7t-1 7l-8 37q-2 4 -6 12.5t-4 14.5l-11 14l-2 4v2l-12 15q-2 0 -4 3t-6 3l-12 6l-23 4q-16 0 -32.5 -2t-33.5 -6h3q-35 -8 -67 -22.5t-60 -30.5l-5 -5q-8 -8 -10 -12l-14 -18q-4 -4 -8 -14.5t-8 -10.5v2q-12 -29 -19 -57l-2 -4q0 -12 -3 -23.5 t-3 -23.5v-21zM160 174q0 -2 1 -2t1 -2q-2 2 -2 4zM162 170h2v-2zM195 492q-2 0 6 4q-2 0 -2 -1t-2 -1zM322 545q4 0 8 2q-2 0 -4 -1t-4 -1zM373 121q2 0 6 4q-4 -4 -6 -4zM440 524q0 -2 2 -4v2q-2 0 -2 2z" />
<glyph unicode="p" horiz-adv-x="737" d="M31 784q0 16 10 34t33 18q29 0 47 -40t28.5 -93.5t13.5 -109.5t3 -89q0 -45 -2 -89t-2 -87q0 -23 1 -45.5t1 -44.5q10 29 20.5 58.5t24.5 57.5q12 27 42 82.5t75 111.5t106.5 98t134.5 42q37 0 69 -14.5t53.5 -38t33.5 -54t12 -63.5q0 -59 -23.5 -111.5t-54.5 -99.5 q-18 -29 -56 -76t-90 -94t-114.5 -80.5t-130.5 -33.5q-16 0 -30.5 16t-14.5 37q-12 -39 -18 -78t-10 -80l-9 -86q0 -10 -1 -21.5t-1 -23.5v-10q0 -10 -2 -17v-47t2 -47l6 -72q0 -23 -11 -44t-40 -21q-23 0 -35 19.5t-14 39.5q-16 129 -19 261.5t-3 265.5q0 66 2 129t2 129 v43q2 6 2 20v8q0 16 1 34t1 36q-2 25 -1 49.5t-3 50.5l-7 50q-4 16 -6 29.5t-10 29.5l-6 18q0 2 -1 4.5t-1 4.5q-8 20 -8 34zM61 668l2 -4v2q0 2 -2 2zM225 90q2 0 2 2t2 6zM231 113q6 10 21 18l74 39q18 10 36.5 19.5t36.5 21.5l-2 -2q23 14 44.5 30.5t43.5 34.5l50 54 q18 20 34.5 44.5t30.5 49.5l10 20q6 8 15 29l10 31q0 10 2 14v10l-2 2v4v-4v4q-2 2 -2 5l2 -5q-2 0 -2 5q0 2 -2 4v-2l-4 6q0 -2 2 -2q-2 0 -4 2l-11 8q-2 0 -12 4t-24 8h6q-10 0 -21.5 -1t-21.5 -3q2 2 4 2t6 2q-12 -4 -24.5 -9t-24.5 -11l-10 -4q-4 -4 -12.5 -10.5 t-16.5 -10.5l-43 -41q-4 -4 -8 -7t-6 -7l-19 -23q-18 -23 -32.5 -44t-28.5 -46v-2q-2 -2 -2 -4l-5 -4q-4 -8 -7 -15.5l-7 -17.5l-31 -69q-10 -20 -16 -40l-12 -40l-13 -43q0 -2 -2 -4zM485 537q4 0 7 2h-3q-2 -2 -4 -2zM635 528q0 -2 1 -2t1 -2q0 2 -1 2t-1 2z" />
<glyph unicode="q" horiz-adv-x="655" d="M10 227q0 72 28 135.5t76 111.5t110.5 76t131.5 28q37 0 72 -14.5t53 -47.5q4 -8 6 -15t2 -18q0 -16 -11 -34.5t-32 -18.5q-10 0 -26.5 9.5t-16.5 17.5l-20 4h6q-18 0 -33.5 -1t-27.5 -3q4 0 6 1t6 1l-23 -6q-12 -10 -38.5 -14.5t-45.5 -14.5l-20 -12q-6 -4 -13 -9.5 t-12 -9.5l-24 -22q-4 -4 -4 -6l-21 -29q-2 -4 -5 -9t-1 -3q-4 -6 -6 -11.5t-4 -11.5l-12 -57l8 -39q6 -12 14 -21l2 -2q4 -6 10.5 -12t10.5 -10l-6 6l10 -8q12 -8 25.5 -14.5t29.5 -6.5h-6q4 0 7 -1t7 -1q18 0 41 6q-4 0 -7 -1t-7 -1q10 2 20.5 6.5t20.5 8.5q0 -2 -2 -2h2 q2 0 8 6q-2 0 -2 -1t-2 -1q10 6 18.5 13t18.5 15l18 19q18 18 33.5 39.5t30.5 44.5q14 23 30.5 55.5t34 63t35.5 53t37 22.5q18 0 30.5 -12t18.5 -30.5t9 -39t3 -34.5q0 -8 -1 -15.5t-1 -13.5l-6 -45q0 -4 -1 -10.5t-1 -10.5v-4q0 -86 -10 -170t-22.5 -167t-25 -167 t-18.5 -165v-15q0 -2 -2 -4v2q0 -10 1 -24.5t3 -26.5v-10q0 -2 1 -7.5t1 -9.5l5 -12v-2q0 -4 2 -4l2 -6l10 -10q12 -12 20 -15q-6 0 -8 2q23 -10 57 -10q23 0 43.5 6t43.5 6h-3q2 2 9 2q-2 0 -3 -1t-3 -1q47 12 94 28.5t94 27.5h-2q10 4 22.5 6t22.5 2q20 0 35.5 -19.5 t15.5 -40.5q0 -23 -8 -39t-29 -24h2q-10 -4 -22 -8t-25 -8l-57 -23q-55 -23 -111.5 -36t-113.5 -13q-59 0 -98.5 22.5t-62 59.5t-32.5 83t-10 95q0 35 4 70.5t10 70.5l27 162q25 152 37 299l4 49l-27 -43q-18 -31 -45 -60.5t-57.5 -53t-65.5 -38t-71 -14.5q-14 0 -51.5 9.5 t-76 33t-68.5 65.5t-30 107zM109 238v4v-4zM117 213q0 -2 1 -3t1 -3q-2 2 -2 6zM117 274v2q0 2 1 4.5t1 4.5q-2 -4 -2 -9v-2zM213 412q4 4 6 4l-4 -2q-2 0 -2 -2zM283 561q2 0 4 1t4 1q-6 0 -8 -2zM287 442l8 4zM293 154h2h-2q0 2 2 2zM508 391q0 -2 1 -3t1 -5v6zM528 -483 q0 -7 2 -11q-2 6 -2 11zM569 -547q2 0 2 -1t2 -1q-2 0 -2 1t-2 1zM696 -545q2 2 6 2q-4 0 -6 -2zM893 -487q2 2 10 2q-8 0 -10 -2z" />
<glyph unicode="r" horiz-adv-x="677" d="M23 520v4q0 16 8 37t35 21q23 0 39 -21.5t28 -52.5t19.5 -63.5t11.5 -55.5q23 31 60.5 77t84.5 89t102.5 73.5t110.5 30.5q23 0 48.5 -8t47 -23.5t36 -37t14.5 -45.5q0 -23 -13.5 -39.5t-31.5 -16.5q-12 0 -27.5 11.5t-15.5 15.5l-19 12q-4 0 -12 4.5t-19 4.5l5 -2h-27h2 q-4 -2 -14.5 -5.5t-20.5 -7.5t-18 -8t-8 -6v2l-5 -4q-27 -16 -50 -35.5t-46 -42.5l-45 -43l-20 -25q-16 -20 -36 -46.5t-28 -43.5v2q-6 -14 -12 -27.5t-10 -29.5l-4 -16q0 -2 -3 -2v-2v2l-6 -37q-2 -10 -3 -18.5t-1 -18.5v-21q0 -18 -10 -40.5t-35 -22.5q-20 0 -32.5 13.5 t-19.5 35t-9 50t-2 57.5q0 35 3 65.5t1 52.5l-4 56q0 12 -3 22t-3 19l-11 41l-2 2v2l-4 6t-10 16t-11 21.5t-5 21.5zM51 457l4 -8l-2 4v2q0 2 -2 2zM440 504l9 4q-2 0 -3.5 -1t-3.5 -1zM498 532q6 0 8 3q-2 0 -4 -1.5t-4 -1.5zM535 535h8h-8zM557 530q2 -2 4 -2l-2 2h-2z " />
<glyph unicode="s" horiz-adv-x="475" d="M29 -33q0 12 10 32.5t33 20.5q6 0 10 -2q57 -27 113 -32h-2q10 -2 30 -2q27 0 56 6l-15 -4q29 8 43 16l10 6q4 2 11.5 8.5t7.5 10.5l10 14l12 33q4 12 4 22v23l-4 12t-4 14v-4q0 8 -5 15.5t-7 11.5l-8 14q-2 0 -2 2v2l-4 4q0 -2 1 -2t1 -2t2 -2l-2 4l-2 2 q-20 23 -43 47.5t-45 47.5l-25 22q-4 4 -6 5t-4 5l-4 5q-29 16 -59.5 37.5t-55.5 49t-41 60.5t-16 74q0 37 11 72.5t34 58.5l28 31q35 29 69 54t81 25q33 0 45.5 -7t24.5 -25q10 -16 10 -33q-4 -16 -18.5 -24.5t-30.5 -8.5q-4 0 -6.5 1t-6.5 1q2 0 2 -2q-2 0 -5 1t-5 1 q-8 0 -22.5 -4t-28.5 -14l2 2l-4 -4q-29 -14 -56.5 -46t-35.5 -61q0 2 1 2t1 4v-2q0 -4 -1 -7t-1 -7v-12q0 -4 1 -5.5t1 -5.5l8 -16q0 -2 1 -3t1 -3v2l33 -33q0 -2 2 -2h-2q2 -2 4 -2l12 -10q25 -16 48.5 -30.5t45.5 -37.5l21 -20q29 -29 57.5 -58.5t52 -63.5t39 -71 t15.5 -80q0 -106 -64.5 -172.5t-161.5 -66.5q-20 0 -54 5t-66.5 17.5t-57 33t-24.5 50.5zM195 326q2 -2 4 -2l2 -2l-4 2q-2 0 -2 2zM213 672l2 2h2q-2 0 -4 -2zM342 35l2 4l2 4v-2q0 -2 -4 -6zM358 74v2q0 4 2 8q0 -6 -2 -10zM360 121l2 -2v-4q0 4 -2 6zM360 121v4v-4z" />
<glyph unicode="t" horiz-adv-x="481" d="M6 686q0 18 10.5 30.5t26.5 12.5q12 0 22.5 -2t20.5 -2l55 -4q14 -2 27.5 -3t28.5 -1q2 43 6 88t4 90v23v6v-2q0 2 1 3t1 3v90q2 18 11 40.5t34 22.5q23 0 37 -17t14 -40v-102.5t-4 -104.5l-6 -98h17t18 2l71 8q2 0 6.5 1t8.5 1q0 -2 -4 -4q14 0 37.5 -11t23.5 -42 q0 -20 -19.5 -30.5t-48 -16.5t-60.5 -7.5t-54 -3.5v-14q0 -2 -1 -4t-1 -6v-45q0 -27 -1 -51.5t-1 -49.5v-317q0 -6 -1 -21.5t-5.5 -33t-13.5 -30.5t-27 -13q-16 0 -26.5 10t-17 25.5t-8.5 33t-2 29.5v145v138v103t4 101q-25 2 -56.5 3.5t-60 7.5t-48 19t-19.5 40z" />
<glyph unicode="u" horiz-adv-x="845" d="M31 659q0 14 8 30t27 16q23 0 36 -30t19 -72t8 -86t2 -71q0 -49 5 -96t5 -94v-2q4 -16 8.5 -32.5t10.5 -33.5l6 -16q0 -2 1 -4t1 -4l12 -23q2 -10 8 -14l2 -2q0 -2 8.5 -12.5t14.5 -14.5l12 -12l4 -4l29 -19q2 -2 15.5 -9t29.5 -7h-6h12h19.5t19.5 4q-4 0 -6 -1t-6 -1 q14 4 30.5 11.5t26.5 13.5l-2 -2q14 8 26.5 18t24.5 23l25 26q-4 -4 -4 -6l6 10q14 14 25.5 30.5t23.5 33.5l23 41v4q0 2 2 2q0 -4 -1 -4t-3 -8l28 63q18 39 37 102.5t38.5 124t41 104.5t43.5 44q23 0 37 -19.5t14 -37.5q2 -123 2 -235t19 -228l18 -158q0 -18 -9 -38.5 t-32 -20.5q-25 0 -43 42t-29.5 100t-16.5 120.5t-7 105.5q-10 -29 -22.5 -55.5t-24.5 -52.5q-14 -31 -43 -78t-70 -91t-92 -75t-109 -31q-55 0 -96 27q-53 31 -87 75t-54.5 95t-28.5 107.5t-8 111.5v109q2 8 2 18v23q1 13 1 26q0 20 -2 40q-3 32 -7 56l-6 29q-2 4 -2 14z M45 449v4v-4zM166 168q0 -2 2 -4q-2 0 -2 4zM190 123l5 -4zM229 82h2h-2z" />
<glyph unicode="v" horiz-adv-x="839" d="M12 575q0 18 11.5 36t31.5 18q16 0 30.5 -16.5t27 -41t21.5 -51t18 -47.5l18 -47q4 -6 5 -13t3 -7l-2 4q4 -12 8 -17l37 -80q12 -29 20.5 -58.5t20.5 -61.5l12 -33h-2q2 -2 2 -4t2 -2l7 -9q8 -20 14 -28l6 -13q0 -2 1 -2t1 -2t2 -2l-2 4q4 -6 10 -10l11 -10q6 0 16 3 t14 7l-4 -2l25 23q-4 -6 -6 -7l32 46q2 4 6.5 12t8.5 12l6 12q57 117 105.5 236t115.5 229q8 14 24.5 39t35 49.5t38 42t37.5 17.5q20 0 32.5 -17.5t12.5 -38.5q0 -23 -10 -34l-115 -191q0 -4 -2 -6t-2 -4l-6 -12q-29 -57 -54.5 -115.5t-53.5 -118.5q-20 -45 -43 -99 t-52.5 -101.5t-65.5 -79t-85 -31.5q-49 6 -80 34.5t-51.5 70.5t-33.5 88.5t-28 86.5l-14 41q-2 2 -2 5q0 2 -1 2t-1 2q0 -6 2 -7l-39 93l-51 139q-2 2 -2 4v-6q0 -2 2 -2q-2 -2 -6.5 12.5t-10.5 24.5q-8 14 -8 34zM276 150v2v2v2q2 -4 3 -4q-2 -2 -3 -2zM301 109l4 -5v-2 q-2 0 -2 2zM414 170l6 12q0 -6 -4 -10z" />
<glyph unicode="w" horiz-adv-x="856" d="M25 639q0 16 10 36.5t35 20.5q16 0 29.5 -12t17.5 -29l18 -75q16 -66 34.5 -125.5t27.5 -124.5v-2v-2q0 -2 2 -4l4 -21q6 -29 15 -61.5t24 -53.5l18 -36q10 -18 18.5 -35t20.5 -33l39 104l53 168l29 76q12 23 21.5 41t43.5 18q43 0 72 -31.5t51.5 -77.5t44 -97.5 t45.5 -87.5v16q0 2 1 5t1 7v80v95t5 96l6 88l14 94q4 16 16.5 32.5t30.5 16.5q31 -1 43 -27q10 -23 10 -42v-7l-12 -192q0 -6 -1 -13.5t-1 -13.5v-49q0 -35 -1 -70t-1 -73q0 -6 -1 -45t-10.5 -82t-28.5 -79t-54 -36q-14 0 -35 22.5t-41.5 54t-36.5 65.5t-24 59l-15 32 q0 20 -20.5 53t-30.5 54l-4 6l-2 4l-6 6q-16 -41 -28.5 -81t-25.5 -81q-8 -25 -20 -66.5t-28.5 -81.5t-39 -69.5t-53.5 -29.5q-39 0 -73.5 45t-62.5 109.5t-46.5 134t-26.5 118.5q0 12 -2 19v2q-12 59 -33.5 120t-33.5 127q-2 6 -2 21zM94 365v4v-4zM313 61h2h-2zM313 61 q2 -2 4 -2zM502 352l4 -4v-2q-2 0 -2 2q-2 2 -2 4zM559 233v5q2 -4 2 -5h-2zM698 211q0 4 1 8t1 8q-2 -8 -2 -14v-2z" />
<glyph unicode="x" horiz-adv-x="645" d="M29 49q0 20 23.5 58t56 81t66.5 84t54 72l-155 166q-4 4 -7.5 7t-7.5 7l-6 8q-2 0 -2 1.5t-2 1.5l-6 10v-2q-8 10 -8 30q0 18 11 35t28 17q12 0 35.5 -18.5t52 -45t56.5 -53.5t46 -45l17 -19l4 11q10 20 20 50t20.5 56.5t22.5 45t29 18.5q16 0 38.5 -15.5t22.5 -42.5 q0 -23 -18 -35l-23 -55q-10 -29 -20 -55.5t-23 -54.5l13 -13q29 -29 55.5 -56.5t54.5 -53.5l41 -37h-2q2 0 4 -2q4 -4 6 -4l4 -4q0 -4 5 -4l45 -37q0 -2 1 -2t1 -2v2l34 -29q14 -12 15 -37q0 -23 -12.5 -40t-28.5 -17q-12 0 -21 6q-80 41 -144.5 102.5t-123.5 126.5l-12 -18 q-18 -29 -35.5 -55.5t-38.5 -53.5q-12 -16 -30.5 -41.5t-38 -49t-38 -41t-30.5 -17.5q-23 0 -36 18.5t-13 40.5z" />
<glyph unicode="y" horiz-adv-x="665" d="M4 444q0 29 1 58.5t3 60.5v-6v8q0 18 9.5 41t33.5 23q23 0 37 -17.5t14 -40.5l4 -213l11 -82q0 -10 6 -26.5t10 -28.5v-6q2 0 2 -3t2 -3l6 -14l17 -21q0 -2 2 -4h2q2 -2 8 -6l14 -4q16 0 29.5 4t30.5 12l-4 -4l47 37l35 37l16 20t18 21l31 35q16 20 39 49.5t44.5 58.5 t35.5 54.5t14 39.5l23 51q4 14 15 24.5t28 10.5q23 0 37 -19.5t14 -39.5q0 -41 -7 -96.5t-18 -98.5l-4 -45q-2 -23 -3 -45t-1 -45l-4 -80q-2 -23 -2 -46v-46v-184q0 -98 3 -197.5t7 -197.5l11 -197q0 -35 1 -66.5t1 -72.5q0 -20 -1 -42t-7.5 -40.5t-17.5 -29.5t-30 -11 q-31 0 -40 29.5t-9 52.5v-6q0 -2 2 -2q0 -2 -4 18v4q0 33 -2 72t-4 73l-6 179q-4 88 -7 176t-3 178v209.5t8 210.5l6 92q-14 -16 -26.5 -33.5t-24.5 -34.5l-17 -18q0 -2 -2 -4l-24 -27q-20 -23 -43 -48.5t-48.5 -47t-55 -35.5t-62.5 -14q-68 0 -108 42t-60.5 103.5 t-26.5 133t-6 130.5zM10 553q0 -4 1 -7t3 -7q-2 4 -3 7t-1 7zM115 285v4l2 -2v-6q-2 0 -2 4zM117 276v5v-5zM174 162h4h-4zM178 162q2 0 3 -1t3 -1q-2 0 -3 1t-3 1zM213 162q4 0 5 1t5 1q-4 0 -5 -1t-5 -1zM246 176l6 4q-4 -4 -6 -4z" />
<glyph unicode="z" horiz-adv-x="710" d="M27 102q0 33 20.5 68t51 66.5t66.5 60.5t66 53l76 60q12 10 25.5 18t23.5 18l25 23q4 6 10 11t10 9l13 13l2 4q0 -2 -2 -4l2 2l2 2h-2q2 2 4 3t4 5q-35 -4 -66.5 -5t-62.5 -3l-109 -6h-21t-22 -2h-24h-6l2 4q-27 0 -41.5 22.5t-14.5 40.5t19.5 28.5t51.5 15.5t72 7t83 7 l98 6q20 2 36.5 5t37.5 3q47 0 67.5 -25.5t20.5 -62.5q0 -61 -43 -115.5t-103.5 -106t-127 -99.5t-111.5 -97l-8 -8q39 0 86 10l41 8q10 2 18 2h18q78 2 154 11.5t154 9.5q31 0 51 -16.5t20 -45.5q0 -35 -21.5 -50t-54 -21t-70.5 -7t-71 -4l-90 -6q-12 -2 -24.5 -2h-24.5 h-35q-41 -6 -77 -12t-70 -6q-59 0 -94 29.5t-35 78.5zM131 125q2 0 3 -1t3 -1q-2 0 -3 1t-3 1zM446 551v2l3 2v2l-3 -2v-4zM446 553l3 2v2q0 -2 -3 -2v-2zM467 518q2 0 4 -2l-2 2h-2zM467 520l4 -4q2 -2 4 -2l-4 4h-2z" />
<glyph unicode="&#xad;" d="M23 354q0 25 15 39.5t38.5 21.5t50.5 8t51 1h86l39 -4q8 0 12 -2q23 0 33 -23.5t10 -40.5q0 -23 -12 -41t-35 -18q-6 0 -10 2h-8h-4h2q-10 0 -21.5 1t-21.5 1q-25 0 -50.5 -2t-54.5 -2q-18 0 -37.5 1t-38 6t-30.5 17.5t-14 34.5z" />
<glyph unicode="&#x2000;" horiz-adv-x="765" />
<glyph unicode="&#x2001;" horiz-adv-x="1530" />
<glyph unicode="&#x2002;" horiz-adv-x="765" />
<glyph unicode="&#x2003;" horiz-adv-x="1530" />
<glyph unicode="&#x2004;" horiz-adv-x="510" />
<glyph unicode="&#x2005;" horiz-adv-x="382" />
<glyph unicode="&#x2006;" horiz-adv-x="255" />
<glyph unicode="&#x2007;" horiz-adv-x="255" />
<glyph unicode="&#x2008;" horiz-adv-x="191" />
<glyph unicode="&#x2009;" horiz-adv-x="306" />
<glyph unicode="&#x200a;" horiz-adv-x="85" />
<glyph unicode="&#x2010;" d="M23 354q0 25 15 39.5t38.5 21.5t50.5 8t51 1h86l39 -4q8 0 12 -2q23 0 33 -23.5t10 -40.5q0 -23 -12 -41t-35 -18q-6 0 -10 2h-8h-4h2q-10 0 -21.5 1t-21.5 1q-25 0 -50.5 -2t-54.5 -2q-18 0 -37.5 1t-38 6t-30.5 17.5t-14 34.5z" />
<glyph unicode="&#x2011;" d="M23 354q0 25 15 39.5t38.5 21.5t50.5 8t51 1h86l39 -4q8 0 12 -2q23 0 33 -23.5t10 -40.5q0 -23 -12 -41t-35 -18q-6 0 -10 2h-8h-4h2q-10 0 -21.5 1t-21.5 1q-25 0 -50.5 -2t-54.5 -2q-18 0 -37.5 1t-38 6t-30.5 17.5t-14 34.5z" />
<glyph unicode="&#x2012;" d="M23 354q0 25 15 39.5t38.5 21.5t50.5 8t51 1h86l39 -4q8 0 12 -2q23 0 33 -23.5t10 -40.5q0 -23 -12 -41t-35 -18q-6 0 -10 2h-8h-4h2q-10 0 -21.5 1t-21.5 1q-25 0 -50.5 -2t-54.5 -2q-18 0 -37.5 1t-38 6t-30.5 17.5t-14 34.5z" />
<glyph unicode="&#x2013;" horiz-adv-x="1076" d="M23 354q0 25 46 39.5t117.5 21.5t154 8t156.5 1h263l119 -4q24 0 37 -2q70 0 100.5 -23.5t30.5 -40.5q0 -23 -36.5 -41t-107.5 -18q-18 0 -30 2h-25h-12h6q-30 0 -65.5 1t-65.5 1q-77 0 -155 -2t-166 -2q-55 0 -114.5 1t-116.5 6t-93.5 17.5t-42.5 34.5z" />
<glyph unicode="&#x2014;" horiz-adv-x="2100" d="M23 354q0 25 91.5 39.5t235.5 21.5t309 8t312 1h525l239 -4q49 0 73 -2q141 0 202 -23.5t61 -40.5q0 -23 -73.5 -41t-213.5 -18q-37 0 -61 2h-49h-25h12q-61 0 -131 1t-131 1q-153 0 -309 -2t-333 -2q-110 0 -229.5 1t-232.5 6t-186.5 17.5t-85.5 34.5z" />
<glyph unicode="&#x2018;" horiz-adv-x="147" d="M20 877q0 20 10.5 33.5t30.5 13.5q27 0 45.5 -20.5t18.5 -43.5q0 -8 -3 -15t-3 -9l-6 -80q-4 -16 -13.5 -28.5t-25.5 -12.5q-20 0 -29.5 16.5t-11.5 32.5l-6 49v49z" />
<glyph unicode="&#x2019;" horiz-adv-x="147" d="M20 877q0 20 10.5 33.5t30.5 13.5q27 0 45.5 -20.5t18.5 -43.5q0 -8 -3 -15t-3 -9l-6 -80q-4 -16 -13.5 -28.5t-25.5 -12.5q-20 0 -29.5 16.5t-11.5 32.5l-6 49v49z" />
<glyph unicode="&#x201a;" horiz-adv-x="147" d="M20 877q0 20 10.5 33.5t30.5 13.5q27 0 45.5 -20.5t18.5 -43.5q0 -8 -3 -15t-3 -9l-6 -80q-4 -16 -13.5 -28.5t-25.5 -12.5q-20 0 -29.5 16.5t-11.5 32.5l-6 49v49z" />
<glyph unicode="&#x201c;" horiz-adv-x="260" d="M27 893q0 39 41 39q18 0 40.5 -17.5t22.5 -44.5q0 -4 -4 -16q0 -16 1 -23.5t1 -29.5q0 -14 -1 -37t-6 -43.5t-14.5 -34.5t-25.5 -14q-29 0 -39 27.5t-8 54.5l4 80q0 14 -2 22l-6 14q-4 12 -4 23zM154 778q0 20 1 39t1 35t8 34.5t29 18.5q33 0 40 -27.5t7 -62.5v-48.5 t-4.5 -47t-12.5 -34.5t-24 -13q-29 0 -37 32.5t-8 73.5z" />
<glyph unicode="&#x201d;" horiz-adv-x="260" d="M27 893q0 39 41 39q18 0 40.5 -17.5t22.5 -44.5q0 -4 -4 -16q0 -16 1 -23.5t1 -29.5q0 -14 -1 -37t-6 -43.5t-14.5 -34.5t-25.5 -14q-29 0 -39 27.5t-8 54.5l4 80q0 14 -2 22l-6 14q-4 12 -4 23zM154 778q0 20 1 39t1 35t8 34.5t29 18.5q33 0 40 -27.5t7 -62.5v-48.5 t-4.5 -47t-12.5 -34.5t-24 -13q-29 0 -37 32.5t-8 73.5z" />
<glyph unicode="&#x201e;" horiz-adv-x="260" d="M27 893q0 39 41 39q18 0 40.5 -17.5t22.5 -44.5q0 -4 -4 -16q0 -16 1 -23.5t1 -29.5q0 -14 -1 -37t-6 -43.5t-14.5 -34.5t-25.5 -14q-29 0 -39 27.5t-8 54.5l4 80q0 14 -2 22l-6 14q-4 12 -4 23zM154 778q0 20 1 39t1 35t8 34.5t29 18.5q33 0 40 -27.5t7 -62.5v-48.5 t-4.5 -47t-12.5 -34.5t-24 -13q-29 0 -37 32.5t-8 73.5z" />
<glyph unicode="&#x202f;" horiz-adv-x="306" />
<glyph unicode="&#x205f;" horiz-adv-x="382" />
<glyph unicode="&#xe000;" horiz-adv-x="624" d="M0 0v625h625v-625h-625z" />
</font>
</defs>
</svg>
